<?xml version="1.0" encoding="UTF-8"?>
<svg id="svg408" enable-background="new 0 0 2000 2000" version="1.1" viewBox="0 0 1547.3 1297.4" xmlns="http://www.w3.org/2000/svg" xmlns:cc="http://creativecommons.org/ns#" xmlns:dc="http://purl.org/dc/elements/1.1/" xmlns:rdf="http://www.w3.org/1999/02/22-rdf-syntax-ns#">
 <metadata id="metadata414">
  <rdf:RDF>
   <cc:Work rdf:about="">
    <dc:format>image/svg+xml</dc:format>
    <dc:type rdf:resource="http://purl.org/dc/dcmitype/StillImage"/>
    <dc:title/>
    <cc:license rdf:resource=""/>
   </cc:Work>
  </rdf:RDF>
 </metadata>
 <g id="cactus">
  <path id="path80" d="m1361.3 591.56c-7.085 14.003-22.727 20.35-34.939 14.167-12.203-6.174-16.36-22.54-9.271-36.543 7.086-14.007 22.729-20.35 34.936-14.171 12.211 6.179 16.361 22.539 9.274 36.547z" fill="#afddb5"/>
  <path id="path82" d="m1336.3 612.09c-4.169 0-8.142-0.938-11.814-2.796-6.948-3.52-11.898-9.882-13.939-17.925-1.991-7.841-0.959-16.365 2.904-24.002 5.757-11.375 16.948-18.731 28.512-18.731 4.168 0 8.142 0.942 11.806 2.796 14.159 7.164 19.114 25.973 11.042 41.927-5.76 11.38-16.948 18.731-28.511 18.731zm5.662-55.446c-8.571 0-16.956 5.631-21.363 14.339-2.991 5.909-3.805 12.451-2.291 18.415 1.463 5.764 4.942 10.292 9.796 12.748 2.538 1.287 5.295 1.936 8.196 1.936 8.571 0 16.955-5.627 21.362-14.335 6.081-12.017 2.71-25.997-7.509-31.166-2.536-1.284-5.293-1.937-8.191-1.937z" fill="#305d8a"/>
  <g id="g86" transform="translate(-223.4 -351.27)" opacity=".38">
   <path id="path84" d="m1575.4 906.28c-0.499-0.254-1.016-0.454-1.524-0.665 3.223 7.418 3.074 16.732-1.212 25.199-6.796 13.429-21.448 19.783-33.411 14.833 2.111 4.856 5.655 8.908 10.483 11.348 12.213 6.183 27.854-0.164 34.939-14.167 7.088-14.009 2.938-30.369-9.275-36.548z" fill="#9db6c9"/>
  </g>
  <path id="path88" d="m1339.4 603.56c16.212 30.892 7.625 67.334-19.177 81.399-26.811 14.065-61.676 0.422-77.884-30.47-16.213-30.889-7.63-67.33 19.177-81.4 26.806-14.065 61.672-0.421 77.884 30.471z" fill="#afddb5"/>
  <path id="path90" d="m1297.6 694.53c-23.505 0-46.554-14.978-58.715-38.155-8.29-15.793-10.738-33.473-6.894-49.787 3.891-16.518 13.748-29.668 27.756-37.02 7.586-3.981 15.853-5.999 24.572-5.999 23.506 0 46.555 14.977 58.72 38.154 8.286 15.794 10.738 33.478 6.894 49.788-3.895 16.521-13.749 29.669-27.756 37.021-7.586 3.98-15.856 5.998-24.577 5.998zm-13.28-122.95c-7.409 0-14.425 1.712-20.85 5.083-11.923 6.257-20.335 17.539-23.686 31.765-3.398 14.434-1.201 30.142 6.194 44.227 10.793 20.573 31.057 33.868 51.621 33.868 7.41 0 14.43-1.712 20.854-5.083 11.919-6.253 20.331-17.535 23.682-31.761 3.402-14.437 1.205-30.146-6.19-44.23-10.796-20.573-31.06-33.869-51.625-33.869z" fill="#305d8a"/>
  <g id="g94" transform="translate(-223.4 -351.27)" opacity=".38">
   <path id="path92" d="m1562.8 954.83c-16.212-30.893-51.078-44.536-77.884-30.47-1.014 0.532-1.943 1.153-2.906 1.748 22.748 1.999 44.153 19.529 52.447 45.564 8.725 27.389 0.188 55.517-19.208 69.727 9.698 1.057 19.478-0.5 28.374-5.169 26.802-14.066 35.389-50.508 19.177-81.4z" fill="#9db6c9"/>
  </g>
  <ellipse id="ellipse96" transform="rotate(18.584)" cx="1424" cy="327.13" rx="34.037" ry="23.025" fill="#afddb5"/>
  <path id="path98" d="m1253.1 792.23c-5.419 0-10.93-0.932-16.376-2.762-20.222-6.8-32.276-23.377-27.448-37.743 3.372-10.03 14.215-16.26 28.293-16.26 5.419 0 10.93 0.931 16.377 2.761 20.221 6.801 32.275 23.377 27.447 37.744-3.372 10.029-14.215 16.26-28.293 16.26zm-15.532-48.756c-10.371 0-18.493 4.238-20.698 10.801-3.289 9.775 6.972 22.414 22.402 27.6 4.626 1.557 9.275 2.346 13.827 2.346 10.371 0 18.493-4.238 20.698-10.8 3.289-9.776-6.973-22.415-22.402-27.601-4.625-1.556-9.275-2.346-13.827-2.346z" fill="#305d8a"/>
  <g id="g102" transform="translate(-223.4 -351.27)" opacity=".38">
   <path id="path100" d="m1476.1 1093.3c-17.816-5.99-35.546-1.075-39.597 10.977-0.544 1.619-0.794 3.289-0.81 4.975 7.637-3.188 17.992-3.434 28.393 0.066 15.424 5.186 25.838 16.842 25.735 27.697 5.443-2.272 9.519-6.029 11.203-11.043 4.052-12.052-7.105-26.682-24.924-32.672z" fill="#9db6c9"/>
  </g>
  <path id="path104" d="m1461.2 663.73c8.149 12.361-0.055 32.156-18.332 44.212-18.273 12.056-39.703 11.802-47.855-0.56-8.149-12.36 0.055-32.158 18.328-44.211 18.281-12.056 39.702-11.806 47.859 0.559z" fill="#afddb5"/>
  <path id="path106" d="m1415.6 720.83c-10.637 0-19.126-3.993-23.909-11.238-9.354-14.191-0.621-36.512 19.466-49.76 9.331-6.151 19.807-9.542 29.501-9.542 10.637 0 19.126 3.993 23.908 11.238 9.354 14.188 0.618 36.508-19.471 49.76-9.326 6.152-19.802 9.542-29.495 9.542zm25.057-62.531c-8.142 0-17.054 2.917-25.09 8.22-16.126 10.633-23.998 28.339-17.189 38.662 3.249 4.928 9.365 7.641 17.222 7.641 8.145 0 17.053-2.921 25.085-8.22 16.127-10.637 23.998-28.343 17.194-38.662-3.25-4.928-9.366-7.641-17.222-7.641z" fill="#305d8a"/>
  <g id="g110" transform="translate(-223.4 -351.27)" opacity=".38">
   <path id="path108" d="m1684.6 1015c-1.857-2.815-4.427-4.97-7.469-6.526 4.356 13.93-8.481 30.725-28.983 37.717-11.982 4.087-23.933 3.902-32.817 0.324-0.21 4.419 0.743 8.587 3.082 12.138 8.152 12.361 29.582 12.615 47.855 0.56 18.277-12.057 26.481-31.852 18.332-44.213z" fill="#9db6c9"/>
  </g>
  <ellipse id="ellipse112" cx="1339.5" cy="753.83" rx="88.094" ry="107.11" fill="#afddb5"/>
  <path id="path114" d="m1339.5 864.93c-50.785 0-92.099-49.847-92.099-111.12s41.313-111.12 92.099-111.12 92.099 49.846 92.099 111.12-41.314 111.12-92.099 111.12zm0-214.23c-46.366 0-84.09 46.257-84.09 103.11 0 56.854 37.724 103.11 84.09 103.11s84.09-46.256 84.09-103.11c-1e-3 -56.853-37.724-103.11-84.09-103.11z" fill="#305d8a"/>
  <g id="g118" transform="translate(-223.4 -351.27)" opacity=".38">
   <path id="path116" d="m1562.9 998c-6.179 0-12.2 0.782-18.019 2.252 40.011 10.113 70.074 53.213 70.074 104.86s-30.063 94.75-70.074 104.86c5.818 1.471 11.84 2.252 18.019 2.252 48.654 0 88.094-47.957 88.094-107.11s-39.44-107.11-88.094-107.11z" fill="#9db6c9"/>
  </g>
  <path id="path120" d="m1443.6 990.43c0 12.537-10.167 22.7-22.704 22.7h-158.81c-12.536 0-22.704-10.163-22.704-22.7l-20.021-146.81c0-12.536 10.168-22.699 22.704-22.699h198.85c12.537 0 22.704 10.163 22.704 22.699l-20.022 146.81z" fill="#e4c6aa"/>
  <path id="path122" d="m1420.9 1017.1h-158.81c-14.633 0-26.556-11.825-26.708-26.423l-19.986-146.55c-0.023-0.176-0.035-0.359-0.035-0.54 0-14.727 11.981-26.704 26.708-26.704h198.85c14.727 0 26.708 11.978 26.708 26.704 0 0.181-0.012 0.364-0.035 0.54l-19.985 146.55c-0.154 14.597-12.077 26.423-26.71 26.423zm-197.53-173.77 19.986 146.52c0.023 0.176 0.035 0.359 0.035 0.539 0 10.309 8.388 18.696 18.699 18.696h158.81c10.313 0 18.7-8.388 18.7-18.696 0-0.18 0.011-0.363 0.035-0.539l19.986-146.52c-0.141-10.191-8.475-18.438-18.7-18.438h-198.85c-10.225-1e-3 -18.558 8.247-18.698 18.438z" fill="#305d8a"/>
  <g id="g126" transform="translate(-223.4 -351.27)" opacity=".38">
   <path id="path124" d="m1664.3 1172.2h-20.021c12.537 0 22.704 10.163 22.704 22.699l-20.021 146.81c0 12.537-10.167 22.7-22.704 22.7h20.021c12.537 0 22.704-10.163 22.704-22.7l20.021-146.81c0-12.536-10.167-22.699-22.704-22.699z" fill="#aa9e80"/>
  </g>
  <line id="line184" x1="1351.6" x2="1373.5" y1="584.37" y2="594.67" fill="#fff"/>
  <path id="path186" d="m1373.5 598.68c-0.57 0-1.153-0.121-1.704-0.383l-21.845-10.3c-1.997-0.942-2.854-3.328-1.912-5.33 0.935-1.994 3.328-2.866 5.33-1.912l21.845 10.3c1.997 0.942 2.854 3.328 1.911 5.33-0.68 1.446-2.123 2.295-3.625 2.295z" fill="#305d8a"/>
  <line id="line188" x1="1339.2" x2="1338" y1="552.84" y2="538.61" fill="#fff"/>
  <path id="path190" d="m1339.2 556.85c-2.062 0-3.813-1.58-3.984-3.671l-1.189-14.23c-0.188-2.202 1.45-4.137 3.656-4.321 2.249-0.262 4.138 1.451 4.321 3.656l1.188 14.23c0.188 2.201-1.45 4.137-3.656 4.321-0.113 0.011-0.226 0.015-0.336 0.015z" fill="#305d8a"/>
  <line id="line192" x1="1326" x2="1307.4" y1="567.55" y2="556.85" fill="#fff"/>
  <path id="path194" d="m1326 571.55c-0.68 0-1.365-0.172-1.998-0.536l-18.547-10.699c-1.916-1.107-2.573-3.555-1.467-5.471 1.103-1.913 3.543-2.569 5.471-1.466l18.548 10.699c1.915 1.107 2.572 3.554 1.466 5.471-0.743 1.283-2.088 2.002-3.473 2.002z" fill="#305d8a"/>
  <line id="line196" x1="1364.7" x2="1373.5" y1="567.55" y2="566.2" fill="#fff"/>
  <path id="path198" d="m1364.7 571.55c-1.944 0-3.648-1.416-3.953-3.398-0.337-2.186 1.164-4.227 3.351-4.563l8.759-1.345c2.187-0.34 4.224 1.165 4.563 3.352 0.337 2.186-1.165 4.227-3.351 4.563l-8.76 1.345c-0.203 0.03-0.41 0.046-0.609 0.046z" fill="#305d8a"/>
  <line id="line200" x1="1373.5" x2="1387" y1="722.83" y2="707.33" fill="#fff"/>
  <path id="path202" d="m1373.5 726.83c-0.938 0-1.881-0.328-2.639-0.993-1.662-1.459-1.831-3.989-0.372-5.65l13.546-15.455c1.458-1.666 3.996-1.822 5.65-0.371 1.662 1.458 1.83 3.989 0.371 5.651l-13.545 15.453c-0.791 0.903-1.9 1.365-3.011 1.365z" fill="#305d8a"/>
  <line id="line204" x1="1441.6" x2="1463.6" y1="690.53" y2="707.33" fill="#fff"/>
  <path id="path206" d="m1463.6 711.33c-0.849 0-1.705-0.271-2.429-0.825l-22.023-16.857c-1.756-1.346-2.092-3.856-0.746-5.612 1.341-1.756 3.867-2.088 5.611-0.747l22.023 16.858c1.756 1.346 2.092 3.855 0.746 5.611-0.785 1.032-1.977 1.572-3.182 1.572z" fill="#305d8a"/>
  <line id="line208" x1="1435.3" x2="1437.6" y1="712.13" y2="718.83" fill="#fff"/>
  <path id="path210" d="m1437.6 722.83c-1.662 0-3.215-1.043-3.786-2.701l-2.287-6.656c-0.72-2.092 0.391-4.371 2.483-5.088 2.096-0.723 4.371 0.396 5.087 2.483l2.288 6.656c0.719 2.092-0.392 4.371-2.483 5.087-0.431 0.15-0.872 0.219-1.302 0.219z" fill="#305d8a"/>
  <line id="line212" x1="1415.8" x2="1410.2" y1="670.23" y2="650.03" fill="#fff"/>
  <path id="path214" d="m1415.8 674.23c-1.752 0-3.363-1.161-3.856-2.933l-5.591-20.135c-0.591-2.131 0.656-4.337 2.787-4.931 2.132-0.586 4.337 0.657 4.931 2.788l5.593 20.135c0.591 2.131-0.657 4.337-2.788 4.931-0.361 0.098-0.721 0.145-1.076 0.145z" fill="#305d8a"/>
  <line id="line216" x1="1439.6" x2="1443.6" y1="652.73" y2="644.73" fill="#fff"/>
  <path id="path218" d="m1439.6 656.73c-0.602 0-1.212-0.137-1.786-0.422-1.979-0.989-2.78-3.395-1.791-5.374l4.004-8.008c0.989-1.979 3.398-2.777 5.374-1.791 1.979 0.989 2.779 3.395 1.79 5.373l-4.005 8.008c-0.703 1.404-2.115 2.214-3.586 2.214z" fill="#305d8a"/>
  <line id="line220" x1="1455.6" x2="1477.6" y1="670.23" y2="664.73" fill="#fff"/>
  <path id="path222" d="m1455.6 674.23c-1.799 0-3.433-1.221-3.883-3.043-0.532-2.146 0.778-4.316 2.925-4.848l22.023-5.451c2.144-0.521 4.317 0.777 4.849 2.924s-0.777 4.317-2.924 4.85l-22.024 5.451c-0.325 0.078-0.646 0.117-0.966 0.117z" fill="#305d8a"/>
  <line id="line224" x1="1463.6" x2="1470.9" y1="680.93" y2="681.53" fill="#fff"/>
  <path id="path226" d="m1470.9 685.53c-0.113 0-0.231 0-0.348-0.016l-7.34-0.629c-2.202-0.188-3.837-2.128-3.645-4.333 0.188-2.197 2.104-3.919 4.332-3.645l7.341 0.629c2.201 0.188 3.835 2.128 3.645 4.333-0.18 2.086-1.928 3.661-3.985 3.661z" fill="#305d8a"/>
  <line id="line228" x1="1275.4" x2="1279.4" y1="576.65" y2="556.63" fill="#fff"/>
  <path id="path230" d="m1275.4 580.66c-0.263 0-0.523-0.023-0.79-0.078-2.166-0.434-3.574-2.542-3.14-4.712l4.004-20.021c0.434-2.17 2.53-3.594 4.712-3.14 2.166 0.434 3.574 2.542 3.141 4.712l-4.005 20.022c-0.379 1.904-2.053 3.217-3.922 3.217z" fill="#305d8a"/>
  <line id="line232" x1="1258.4" x2="1248.7" y1="574.92" y2="567.55" fill="#fff"/>
  <path id="path234" d="m1258.4 578.93c-0.845 0-1.694-0.266-2.417-0.817l-9.71-7.375c-1.764-1.337-2.108-3.848-0.767-5.608 1.334-1.767 3.853-2.104 5.607-0.766l9.71 7.375c1.764 1.337 2.107 3.848 0.767 5.607-0.786 1.04-1.982 1.584-3.19 1.584z" fill="#305d8a"/>
  <line id="line236" x1="1258.4" x2="1234.2" y1="658.73" y2="664.73" fill="#fff"/>
  <path id="path238" d="m1234.2 668.73c-1.795 0-3.43-1.216-3.883-3.038-0.532-2.147 0.777-4.321 2.92-4.853l24.21-6.007c2.143-0.517 4.317 0.774 4.854 2.921 0.531 2.146-0.778 4.321-2.921 4.853l-24.21 6.007c-0.325 0.078-0.65 0.117-0.97 0.117z" fill="#305d8a"/>
  <line id="line240" x1="1275.4" x2="1258.4" y1="629.02" y2="623.37" fill="#fff"/>
  <path id="path242" d="m1275.4 633.03c-0.418 0-0.845-0.066-1.263-0.204l-16.987-5.654c-2.101-0.7-3.233-2.968-2.538-5.064 0.696-2.1 2.969-3.222 5.064-2.538l16.986 5.655c2.101 0.7 3.234 2.968 2.539 5.064-0.56 1.681-2.123 2.741-3.801 2.741z" fill="#305d8a"/>
  <line id="line244" x1="1290.9" x2="1294.1" y1="601.34" y2="584.37" fill="#fff"/>
  <path id="path246" d="m1290.9 605.35c-0.242 0-0.488-0.02-0.735-0.067-2.174-0.403-3.609-2.495-3.207-4.669l3.152-16.971c0.402-2.174 2.495-3.625 4.669-3.207 2.175 0.403 3.609 2.495 3.206 4.669l-3.151 16.971c-0.359 1.928-2.041 3.274-3.934 3.274z" fill="#305d8a"/>
  <line id="line248" x1="1322.8" x2="1335.4" y1="604.01" y2="584.37" fill="#fff"/>
  <path id="path250" d="m1322.8 608.02c-0.743 0-1.498-0.208-2.166-0.641-1.862-1.196-2.395-3.676-1.193-5.534l12.682-19.642c1.2-1.861 3.684-2.394 5.533-1.193 1.861 1.196 2.394 3.676 1.193 5.533l-12.682 19.643c-0.766 1.189-2.052 1.834-3.367 1.834z" fill="#305d8a"/>
  <line id="line252" x1="1332.8" x2="1355.5" y1="623.37" y2="626.19" fill="#fff"/>
  <path id="path254" d="m1355.5 630.2c-0.164 0-0.332-8e-3 -0.501-0.032l-22.692-2.827c-2.193-0.274-3.75-2.272-3.476-4.47 0.273-2.194 2.24-3.738 4.469-3.477l22.693 2.827c2.193 0.274 3.749 2.272 3.476 4.47-0.25 2.027-1.98 3.509-3.969 3.509z" fill="#305d8a"/>
  <line id="line256" x1="1236.8" x2="1215.3" y1="640.41" y2="634.71" fill="#fff"/>
  <path id="path258" d="m1236.8 644.42c-0.34 0-0.688-0.042-1.031-0.132l-21.465-5.698c-2.135-0.567-3.41-2.761-2.843-4.899 0.566-2.135 2.769-3.406 4.899-2.843l21.465 5.698c2.135 0.567 3.41 2.761 2.843 4.899-0.478 1.79-2.096 2.975-3.868 2.975z" fill="#305d8a"/>
  <line id="line260" x1="1226" x2="1234.2" y1="613.36" y2="612.09" fill="#fff"/>
  <path id="path262" d="m1226 617.36c-1.939 0-3.645-1.412-3.953-3.39-0.341-2.187 1.157-4.231 3.343-4.572l8.138-1.263c2.206-0.329 4.235 1.158 4.571 3.344 0.341 2.186-1.157 4.231-3.344 4.571l-8.137 1.264c-0.208 0.03-0.414 0.046-0.618 0.046z" fill="#305d8a"/>
  <line id="line264" x1="1303.4" x2="1307.4" y1="637.56" y2="626.19" fill="#fff"/>
  <path id="path266" d="m1303.4 641.57c-0.442 0-0.892-0.074-1.33-0.227-2.088-0.735-3.183-3.022-2.447-5.107l4.004-11.368c0.734-2.088 3.03-3.171 5.107-2.448 2.087 0.735 3.183 3.023 2.447 5.107l-4.005 11.368c-0.577 1.647-2.126 2.675-3.776 2.675z" fill="#305d8a"/>
  <line id="line268" x1="1251.4" x2="1240.8" y1="594.67" y2="584.37" fill="#fff"/>
  <path id="path270" d="m1251.4 598.68c-1.009 0-2.019-0.379-2.797-1.138l-10.569-10.3c-1.584-1.541-1.615-4.079-0.07-5.662 1.545-1.584 4.082-1.607 5.662-0.07l10.57 10.3c1.584 1.541 1.614 4.078 0.07 5.662-0.782 0.805-1.826 1.208-2.866 1.208z" fill="#305d8a"/>
  <line id="line272" x1="1277.4" x2="1284.1" y1="650.03" y2="652.73" fill="#fff"/>
  <path id="path274" d="m1284.1 656.73c-0.497 0-1.001-0.09-1.49-0.285l-6.672-2.671c-2.053-0.825-3.05-3.156-2.229-5.209 0.825-2.053 3.159-3.046 5.208-2.229l6.672 2.671c2.053 0.825 3.051 3.155 2.229 5.208-0.629 1.565-2.131 2.515-3.718 2.515z" fill="#305d8a"/>
  <line id="line276" x1="1240.8" x2="1226" y1="748.13" y2="728.83" fill="#fff"/>
  <path id="path278" d="m1240.8 752.13c-1.208 0-2.401-0.543-3.19-1.579l-14.739-19.354c-1.337-1.76-0.996-4.27 0.763-5.611 1.76-1.341 4.271-1.001 5.612 0.764l14.738 19.352c1.337 1.76 0.997 4.271-0.763 5.611-0.724 0.553-1.576 0.817-2.421 0.817z" fill="#305d8a"/>
  <line id="line280" x1="1219.3" x2="1212.3" y1="744.73" y2="738.53" fill="#fff"/>
  <path id="path282" d="m1219.3 748.73c-0.945 0-1.896-0.332-2.659-1.009l-7.062-6.266c-1.654-1.466-1.803-3.995-0.336-5.653 1.466-1.654 4.004-1.804 5.653-0.337l7.063 6.265c1.654 1.466 1.803 3.996 0.337 5.654-0.79 0.892-1.893 1.346-2.996 1.346z" fill="#305d8a"/>
  <line id="line284" x1="1226" x2="1208" y1="763.83" y2="770.83" fill="#fff"/>
  <path id="path286" d="m1208 774.83c-1.604 0-3.116-0.971-3.734-2.559-0.798-2.061 0.227-4.38 2.288-5.181l18.073-7.008c2.05-0.794 4.376 0.224 5.182 2.288 0.798 2.061-0.227 4.38-2.287 5.181l-18.074 7.008c-0.474 0.184-0.968 0.271-1.448 0.271z" fill="#305d8a"/>
  <line id="line288" x1="1226" x2="1219.3" y1="779.73" y2="788.23" fill="#fff"/>
  <path id="path290" d="m1219.3 792.23c-0.871 0-1.748-0.282-2.482-0.869-1.732-1.372-2.025-3.891-0.649-5.623l6.727-8.478c1.372-1.732 3.891-2.029 5.623-0.649 1.732 1.373 2.024 3.891 0.648 5.623l-6.726 8.479c-0.791 0.996-1.96 1.517-3.141 1.517z" fill="#305d8a"/>
  <line id="line292" x1="1240.8" x2="1236.8" y1="772.83" y2="792.23" fill="#fff"/>
  <path id="path294" d="m1236.8 796.23c-0.269 0-0.539-0.027-0.813-0.082-2.167-0.45-3.559-2.569-3.113-4.731l4.004-19.354c0.446-2.167 2.559-3.551 4.732-3.112 2.166 0.45 3.559 2.569 3.113 4.731l-4.005 19.353c-0.39 1.893-2.06 3.195-3.918 3.195z" fill="#305d8a"/>
  <line id="line296" x1="1376.2" x2="1384.2" y1="670.23" y2="646.73" fill="#fff"/>
  <path id="path298" d="m1376.2 674.23c-0.43 0-0.864-0.066-1.294-0.215-2.092-0.716-3.211-2.988-2.495-5.083l8.009-23.471c0.711-2.092 2.991-3.218 5.084-2.495 2.092 0.715 3.21 2.987 2.495 5.083l-8.01 23.47c-0.567 1.663-2.123 2.711-3.789 2.711z" fill="#305d8a"/>
  <line id="line300" x1="1361.3" x2="1362.6" y1="650.03" y2="640.41" fill="#fff"/>
  <path id="path302" d="m1361.3 654.03c-0.168 0-0.336-0.012-0.508-0.031-2.194-0.277-3.747-2.283-3.469-4.478l1.224-9.651c0.281-2.194 2.261-3.707 4.478-3.469 2.193 0.278 3.746 2.284 3.469 4.478l-1.224 9.651c-0.259 2.022-1.983 3.5-3.97 3.5z" fill="#305d8a"/>
  <line id="line304" x1="1290.9" x2="1270.7" y1="681.53" y2="667.43" fill="#fff"/>
  <path id="path306" d="m1290.9 685.53c-0.79 0-1.584-0.23-2.284-0.715l-20.204-14.051c-1.815-1.263-2.265-3.757-1.001-5.575 1.258-1.819 3.749-2.269 5.575-1.002l20.205 14.05c1.814 1.264 2.265 3.759 1.001 5.577-0.778 1.118-2.025 1.716-3.292 1.716z" fill="#305d8a"/>
  <line id="line308" x1="1323.4" x2="1327.4" y1="648.73" y2="636.72" fill="#fff"/>
  <path id="path310" d="m1323.4 652.73c-0.418 0-0.844-0.066-1.267-0.208-2.096-0.695-3.229-2.964-2.53-5.063l4.005-12.013c0.699-2.096 2.952-3.238 5.064-2.53 2.095 0.696 3.229 2.964 2.529 5.064l-4.005 12.013c-0.558 1.677-2.118 2.737-3.796 2.737z" fill="#305d8a"/>
  <line id="line312" x1="1316.7" x2="1322.8" y1="667.43" y2="674.53" fill="#fff"/>
  <path id="path314" d="m1322.8 678.53c-1.121 0-2.236-0.47-3.029-1.384l-6.073-7.028c-1.447-1.673-1.259-4.203 0.41-5.65 1.67-1.442 4.196-1.263 5.65 0.411l6.073 7.027c1.446 1.673 1.26 4.203-0.41 5.65-0.759 0.654-1.689 0.974-2.621 0.974z" fill="#305d8a"/>
  <line id="line316" x1="1340.6" x2="1338" y1="664.73" y2="685.53" fill="#fff"/>
  <path id="path318" d="m1338 689.53c-0.164 0-0.333-0.012-0.505-0.031-2.194-0.274-3.746-2.275-3.473-4.474l2.608-20.78c0.273-2.186 2.229-3.715 4.474-3.472 2.194 0.273 3.746 2.275 3.472 4.473l-2.607 20.78c-0.254 2.021-1.979 3.504-3.969 3.504z" fill="#305d8a"/>
  <line id="line320" x1="1401.5" x2="1417.5" y1="693.43" y2="685.53" fill="#fff"/>
  <path id="path322" d="m1401.5 697.43c-1.478 0-2.897-0.817-3.594-2.229-0.981-1.982-0.168-4.384 1.814-5.365l16.018-7.915c1.994-0.981 4.392-0.168 5.364 1.814 0.982 1.982 0.169 4.385-1.813 5.366l-16.018 7.914c-0.571 0.282-1.177 0.415-1.771 0.415z" fill="#305d8a"/>
  <line id="line324" x1="1411.5" x2="1423.5" y1="704.83" y2="704.83" fill="#fff"/>
  <path id="path326" d="m1423.5 708.83h-12.013c-2.214 0-4.004-1.791-4.004-4.005 0-2.213 1.79-4.004 4.004-4.004h12.013c2.214 0 4.004 1.791 4.004 4.004 0 2.214-1.79 4.005-4.004 4.005z" fill="#305d8a"/>
  <line id="line328" x1="1245.4" x2="1261.4" y1="722.83" y2="735.53" fill="#fff"/>
  <path id="path330" d="m1261.4 739.53c-0.869 0-1.744-0.281-2.483-0.863l-16.018-12.678c-1.731-1.373-2.025-3.892-0.652-5.627 1.368-1.732 3.879-2.03 5.627-0.653l16.018 12.678c1.731 1.372 2.024 3.891 0.652 5.627-0.791 0.996-1.965 1.516-3.144 1.516z" fill="#305d8a"/>
  <line id="line332" x1="1258.4" x2="1252.7" y1="711.83" y2="710.83" fill="#fff"/>
  <path id="path334" d="m1258.4 715.83c-0.239 0-0.478-0.021-0.721-0.063l-5.705-1.037c-2.174-0.398-3.62-2.482-3.226-4.657 0.395-2.178 2.471-3.605 4.657-3.226l5.705 1.036c2.175 0.398 3.621 2.483 3.227 4.657-0.352 1.937-2.038 3.29-3.937 3.29z" fill="#305d8a"/>
  <line id="line336" x1="1277.4" x2="1292.5" y1="698.93" y2="710.83" fill="#fff"/>
  <path id="path338" d="m1292.5 714.83c-0.865 0-1.736-0.277-2.472-0.855l-15.106-11.873c-1.736-1.364-2.041-3.883-0.672-5.623 1.364-1.736 3.879-2.049 5.623-0.672l15.105 11.872c1.736 1.364 2.041 3.883 0.673 5.623-0.79 1.005-1.963 1.528-3.151 1.528z" fill="#305d8a"/>
  <line id="line340" x1="1307.4" x2="1313.6" y1="702.13" y2="712.13" fill="#fff"/>
  <path id="path342" d="m1313.6 716.13c-1.346 0-2.655-0.677-3.414-1.9l-6.187-10.03c-1.157-1.885-0.574-4.353 1.307-5.514 1.885-1.161 4.349-0.571 5.514 1.306l6.187 10.03c1.157 1.885 0.574 4.353-1.307 5.514-0.658 0.402-1.385 0.594-2.1 0.594z" fill="#305d8a"/>
  <line id="line344" x1="1380.3" x2="1391.9" y1="760.83" y2="748.13" fill="#fff"/>
  <path id="path346" d="m1380.3 764.83c-0.97 0-1.939-0.348-2.706-1.052-1.631-1.498-1.74-4.027-0.247-5.658l11.631-12.682c1.493-1.631 4.031-1.74 5.657-0.246 1.632 1.497 1.74 4.027 0.247 5.658l-11.63 12.682c-0.79 0.861-1.869 1.298-2.952 1.298z" fill="#305d8a"/>
  <line id="line348" x1="1401.5" x2="1409.5" y1="767.33" y2="764.83" fill="#fff"/>
  <path id="path350" d="m1401.5 771.33c-1.705 0-3.285-1.096-3.82-2.812-0.661-2.108 0.517-4.357 2.628-5.014l8.008-2.503c2.104-0.672 4.353 0.513 5.014 2.628 0.661 2.107-0.517 4.356-2.628 5.013l-8.009 2.503c-0.395 0.126-0.798 0.185-1.193 0.185z" fill="#305d8a"/>
  <line id="line352" x1="1413" x2="1436.4" y1="741.63" y2="738.53" fill="#fff"/>
  <path id="path354" d="m1413 745.63c-1.979 0-3.694-1.462-3.965-3.473-0.293-2.193 1.247-4.207 3.438-4.5l23.428-3.133c2.217-0.27 4.207 1.251 4.5 3.438 0.294 2.194-1.247 4.207-3.437 4.501l-23.428 3.132c-0.18 0.024-0.359 0.035-0.536 0.035z" fill="#305d8a"/>
  <line id="line356" x1="1428.1" x2="1433.6" y1="760.83" y2="758.53" fill="#fff"/>
  <path id="path358" d="m1428.1 764.83c-1.549 0-3.022-0.903-3.676-2.416-0.876-2.03 0.059-4.388 2.089-5.264l5.415-2.339c2.038-0.875 4.392 0.063 5.264 2.089 0.876 2.028-0.059 4.387-2.088 5.263l-5.416 2.339c-0.517 0.224-1.056 0.328-1.588 0.328z" fill="#305d8a"/>
  <line id="line360" x1="1266.9" x2="1251.4" y1="792.23" y2="804.93" fill="#fff"/>
  <path id="path362" d="m1251.4 808.93c-1.161 0-2.314-0.5-3.104-1.47-1.399-1.713-1.146-4.238 0.567-5.635l15.531-12.682c1.722-1.4 4.239-1.146 5.636 0.567 1.4 1.712 1.146 4.238-0.567 5.634l-15.531 12.682c-0.748 0.607-1.644 0.904-2.532 0.904z" fill="#305d8a"/>
  <line id="line364" x1="1275.4" x2="1290.9" y1="772.83" y2="775.53" fill="#fff"/>
  <path id="path366" d="m1290.9 779.53c-0.224 0-0.454-0.02-0.681-0.058l-15.532-2.668c-2.182-0.371-3.645-2.443-3.27-4.621 0.372-2.179 2.441-3.637 4.623-3.27l15.532 2.667c2.182 0.372 3.645 2.444 3.269 4.622-0.331 1.952-2.025 3.328-3.941 3.328z" fill="#305d8a"/>
  <line id="line368" x1="1284.9" x2="1300.1" y1="802.23" y2="792.23" fill="#fff"/>
  <path id="path370" d="m1284.9 806.23c-1.298 0-2.573-0.63-3.344-1.796-1.22-1.845-0.715-4.328 1.131-5.549l15.134-10.011c1.842-1.224 4.324-0.719 5.549 1.131 1.22 1.846 0.715 4.328-1.13 5.549l-15.134 10.011c-0.681 0.449-1.447 0.665-2.206 0.665z" fill="#305d8a"/>
  <line id="line372" x1="1329.1" x2="1322.8" y1="782.53" y2="798.53" fill="#fff"/>
  <path id="path374" d="m1322.8 802.53c-0.492 0-0.989-0.09-1.474-0.281-2.057-0.813-3.062-3.141-2.249-5.197l6.34-16.017c0.817-2.058 3.155-3.059 5.196-2.248 2.057 0.813 3.063 3.14 2.249 5.196l-6.339 16.018c-0.621 1.572-2.131 2.529-3.723 2.529z" fill="#305d8a"/>
  <line id="line376" x1="1344.1" x2="1347.6" y1="797.23" y2="804.93" fill="#fff"/>
  <path id="path378" d="m1347.6 808.93c-1.518 0-2.972-0.863-3.645-2.334l-3.52-7.677c-0.923-2.009-0.039-4.387 1.971-5.31 2.041-0.916 4.396-0.035 5.311 1.971l3.52 7.676c0.923 2.011 0.039 4.388-1.971 5.311-0.543 0.247-1.111 0.363-1.666 0.363z" fill="#305d8a"/>
  <line id="line380" x1="1305.4" x2="1284.9" y1="744.73" y2="738.53" fill="#fff"/>
  <path id="path382" d="m1305.4 748.73c-0.388 0-0.782-0.055-1.174-0.176l-20.475-6.266c-2.111-0.645-3.305-2.886-2.655-5.001 0.646-2.115 2.875-3.315 5.002-2.655l20.475 6.265c2.111 0.646 3.305 2.886 2.655 5.002-0.528 1.724-2.111 2.831-3.828 2.831z" fill="#305d8a"/>
  <line id="line384" x1="1355.5" x2="1358.8" y1="766.13" y2="758.53" fill="#fff"/>
  <path id="path386" d="m1355.5 770.13c-0.536 0-1.083-0.109-1.607-0.336-2.026-0.892-2.944-3.254-2.057-5.279l3.335-7.595c0.892-2.024 3.242-2.936 5.279-2.057 2.025 0.892 2.944 3.254 2.057 5.279l-3.336 7.595c-0.66 1.501-2.131 2.393-3.671 2.393z" fill="#305d8a"/>
  <line id="line388" x1="1380.2" x2="1392.8" y1="790.53" y2="793.23" fill="#fff"/>
  <path id="path390" d="m1392.8 797.23c-0.272 0-0.551-0.026-0.829-0.085l-12.681-2.671c-2.162-0.458-3.552-2.581-3.093-4.744 0.457-2.162 2.596-3.554 4.743-3.092l12.682 2.67c2.161 0.458 3.551 2.581 3.093 4.743-0.399 1.885-2.06 3.179-3.915 3.179z" fill="#305d8a"/>
  <line id="line392" x1="1223.3" x2="1459.6" y1="868.93" y2="868.93" fill="#fff"/>
  <path id="path394" d="m1459.6 872.93h-236.25c-2.213 0-4.005-1.791-4.005-4.005 0-2.213 1.792-4.004 4.005-4.004h236.25c2.213 0 4.004 1.791 4.004 4.004 0 2.214-1.791 4.005-4.004 4.005z" fill="#305d8a"/>
 </g>
</svg>
