<?xml version="1.0" encoding="UTF-8"?>
<svg id="svg408" enable-background="new 0 0 2000 2000" version="1.1" viewBox="0 0 1547.3 1297.4" xmlns="http://www.w3.org/2000/svg" xmlns:cc="http://creativecommons.org/ns#" xmlns:dc="http://purl.org/dc/elements/1.1/" xmlns:rdf="http://www.w3.org/1999/02/22-rdf-syntax-ns#">
 <metadata id="metadata414">
  <rdf:RDF>
   <cc:Work rdf:about="">
    <dc:format>image/svg+xml</dc:format>
    <dc:type rdf:resource="http://purl.org/dc/dcmitype/StillImage"/>
    <dc:title/>
    <cc:license rdf:resource=""/>
   </cc:Work>
  </rdf:RDF>
 </metadata>
 <g id="cloud">
  <path id="path10" d="m1370.3 1153.2h-139.87c-39.832 0-72.125-32.245-72.125-72.077 0-39.827 32.293-72.076 72.125-72.076h48.078c39.828 0 72.121-32.245 72.121-72.077s-32.293-72.077-72.121-72.077h-288.48c-39.831 0-72.123-32.245-72.123-72.077 0-39.831 32.292-72.077 72.123-72.077h485.18c39.827 0 72.119-32.245 72.119-72.077s-32.292-72.077-72.119-72.077h-345.31c-39.828 0-72.117-32.25-72.117-72.077 0-39.832 32.289-72.077 72.117-72.077h131.13c39.832 0 72.12-32.246 72.12-72.077 0-39.832-32.288-72.077-72.12-72.077h-288.48c-39.827 0-72.12-32.246-72.12-72.078s32.293-72.077 72.12-72.077h43.708c39.831 0 72.123-32.245 72.123-72.077 0-39.828-32.292-72.077-72.123-72.077h-437.1c-39.828 0-72.12 32.249-72.12 72.077 0 39.832 32.292 72.077 72.12 72.077h26.227c39.832 0 72.121 32.246 72.121 72.077s-32.289 72.078-72.121 72.078h-48.083c-39.828 0-72.12 32.245-72.12 72.077 0 39.831 32.292 72.077 72.12 72.077h-8.74c39.828 0 72.12 32.246 72.12 72.077 0 39.828-32.292 72.077-72.12 72.077h-476.44c-39.832 0-72.124 32.245-72.124 72.077s32.292 72.077 72.124 72.077h122.38c39.828 0 72.12 32.246 72.12 72.077 0 39.832-32.292 72.077-72.12 72.077h-17.483c-39.832 0-72.124 32.245-72.124 72.077s32.292 72.077 72.124 72.077h327.82c39.828 0 72.12 32.249 72.12 72.076 0 39.832-32.292 72.077-72.12 72.077h-166.1c-39.832 0-72.124 32.246-72.124 72.078 0 39.831 32.292 72.076 72.124 72.076h1031.5c39.831 0 72.124-32.245 72.124-72.076 1e-3 -39.832-32.292-72.078-72.123-72.078z" fill="beige"/>
 </g>
</svg>
