<?xml version="1.0" encoding="UTF-8"?>
<svg id="svg408" enable-background="new 0 0 2000 2000" version="1.1" viewBox="0 0 1547.3 1297.4" xmlns="http://www.w3.org/2000/svg" xmlns:cc="http://creativecommons.org/ns#" xmlns:dc="http://purl.org/dc/elements/1.1/" xmlns:rdf="http://www.w3.org/1999/02/22-rdf-syntax-ns#">
 <metadata id="metadata414">
  <rdf:RDF>
   <cc:Work rdf:about="">
    <dc:format>image/svg+xml</dc:format>
    <dc:type rdf:resource="http://purl.org/dc/dcmitype/StillImage"/>
    <dc:title/>
    <cc:license rdf:resource=""/>
   </cc:Work>
  </rdf:RDF>
 </metadata>
 <g id="coffeeMug">
  <path id="path396" d="m1337.4 885.11c0-45.172-36.714-81.797-82.09-82.077v-10.961c0-18.692-15.25-33.843-34.056-33.843h-136.11c-18.806 0-34.056 15.151-34.056 33.843v183.06c0 18.692 15.25 33.844 34.056 33.844h136.11c18.806 0 34.056-15.152 34.056-33.844v-7.9407c45.378-0.2788 82.09-36.905 82.09-82.075zm-82.089 46.256v-92.513c25.48 0.27433 46.052 20.867 46.052 46.256 0 25.389-20.571 45.983-46.052 46.257z" fill="#eae8e1" stroke-width="1.4955"/>
  <path id="path398" d="m1221.3 1016.5h-136.11c-22.09 0-40.062-17.968-40.062-40.058v-184.17c0-22.09 17.973-40.056 40.062-40.056h136.11c22.09 0 40.062 17.967 40.062 40.056v5.256c45.782 3.366 82.09 41.81 82.09 88.347s-36.309 84.981-82.09 88.349v2.2169c0 22.091-17.972 40.059-40.062 40.059zm-136.11-252.27c-15.468 0-28.05 12.584-28.05 28.044v184.17c0 15.464 12.582 28.044 28.05 28.044h136.11c15.47 0 28.05-12.582 28.05-28.044v-7.989c0-3.3015 2.6685-5.9821 5.97-6.0061 41.968-0.258 76.119-34.608 76.119-76.57s-34.15-76.312-76.119-76.57c-3.303-0.0225-5.97-2.7045-5.97-6.006v-11.028c0-15.462-12.582-28.044-28.05-28.044zm170.16 174.2c-1.584 0-3.096-0.621-4.2225-1.7355-1.143-1.1265-1.782-2.661-1.782-4.2705v-93.076c0-1.6065 0.639-3.144 1.782-4.2705 1.1445-1.1325 2.757-1.8465 4.287-1.7355 28.671 0.3105 51.993 23.88 51.993 52.544 0 28.665-23.322 52.234-51.993 52.544-0.023 1e-3 -0.041 1e-3 -0.064 1e-3zm6.006-92.553v80.019c19.245-3.144 34.038-19.96 34.038-40.01s-14.793-36.866-34.038-40.01z" fill="#305d8a" stroke-width="1.5"/>
  <g id="g402" transform="matrix(1.5 0 0 1.4909 394.65 -1025.2)" opacity=".2">
   <path id="path400" d="m573.8 1226.3v-7.352c0-12.537-10.167-22.699-22.704-22.699h-29.352v168.18h29.352c12.537 0 22.704-10.163 22.704-22.7v-5.326c30.251-0.188 54.727-24.753 54.727-55.051s-24.476-54.864-54.727-55.051zm0 86.076v-62.051c16.987 0.184 30.701 13.996 30.701 31.025s-13.714 30.842-30.701 31.026z" fill="#9db6c9"/>
  </g>
  <line id="line404" x1="1087.2" x2="1219.3" y1="782.09" y2="782.09" fill="#fff" stroke-width="1.4955"/>
  <path id="path406" d="m1219.3 788.05h-132.14c-3.3195 0-6.006-2.6702-6.006-5.9712 0-3.2994 2.6865-5.9697 6.006-5.9697h132.14c3.3195 0 6.0075 2.6702 6.0075 5.9697 0 3.3009-2.688 5.9712-6.0075 5.9712z" fill="#305d8a" stroke-width="1.4955"/>
 </g>
</svg>
