<?xml version="1.0" encoding="UTF-8"?>
<svg id="svg408" enable-background="new 0 0 2000 2000" version="1.1" viewBox="0 0 1547.3 1297.4" xmlns="http://www.w3.org/2000/svg" xmlns:cc="http://creativecommons.org/ns#" xmlns:dc="http://purl.org/dc/elements/1.1/" xmlns:rdf="http://www.w3.org/1999/02/22-rdf-syntax-ns#">
 <metadata id="metadata414">
  <rdf:RDF>
   <cc:Work rdf:about="">
    <dc:format>image/svg+xml</dc:format>
    <dc:type rdf:resource="http://purl.org/dc/dcmitype/StillImage"/>
    <dc:title/>
    <cc:license rdf:resource=""/>
   </cc:Work>
  </rdf:RDF>
 </metadata>
 <g id="lamp">
  <path id="polygon12" transform="matrix(1.25 0 0 1.25 -347.78 -694.4)" d="m311.52 1080.4 12.01 9.4 126.86-153.01-11.64-10.6z" fill="#9db6c9"/>
  <path id="path14" d="m56.619 672.85c-1.075 0-2.155-0.34625-3.07-1.0562l-15.016-11.678c-1.065-0.83125-1.75-2.0575-1.9012-3.4025-0.14625-1.3438 0.255-2.6888 1.115-3.735l159.05-192.79c0.87125-1.0562 2.1412-1.7062 3.505-1.8038s2.7125 0.37125 3.725 1.29l14.546 13.248c1.98 1.7975 2.1888 4.8388 0.48375 6.8975l-158.58 191.21c-0.98625 1.1862-2.4138 1.8075-3.8562 1.8075zm-7.8688-17.47 7.1175 5.5338 152.44-183.8-7.1262-6.4912-152.43 184.76z" fill="#305d8a" stroke-width="1.25"/>
  <path id="polygon16" transform="matrix(1.25 0 0 1.25 -347.78 -694.4)" d="m389.6 1280.3h16.02l-78.58-153.5-12.77 7z" fill="#9db6c9"/>
  <g stroke-width="1.25">
   <path id="path18" d="m159.24 910.97h-20.021c-1.8762 0-3.5925-1.0475-4.4538-2.7188l-94.164-183.11c-1.2362-2.41-0.3325-5.3725 2.0438-6.6775l15.96-8.76c1.1925-0.645 2.5762-0.79125 3.8812-0.395 1.29 0.395 2.365 1.3 2.9862 2.5025l98.225 191.88c0.7925 1.5538 0.72375 3.4075-0.18625 4.8925-0.9075 1.4862-2.5262 2.3962-4.2712 2.3962zm-16.966-10.011h8.7788l-92.145-180-7.175 3.9338 90.541 176.08z" fill="#305d8a"/>
   <path id="path20" d="m202.43 315c10.744 10.754 10.744 28.184 0 38.932-10.755 10.749-28.185 10.749-38.938 0-10.745-10.749-10.745-28.179 0-38.932 10.752-10.749 28.182-10.749 38.938 0z" fill="#9db6c9"/>
   <path id="path22" d="m182.96 367c-8.6912 0-16.864-3.3825-23.009-9.5275-12.68-12.684-12.68-33.321 0-46.011 6.145-6.145 14.318-9.5275 23.009-9.5275s16.864 3.3825 23.008 9.5275c12.68 12.689 12.68 33.326 0 46.011-6.145 6.145-14.318 9.5275-23.008 9.5275zm0-55.054c-6.0175 0-11.672 2.3412-15.931 6.5938-8.7738 8.7838-8.7738 23.076 0 31.855 4.2575 4.2525 9.9138 6.5938 15.931 6.5938 6.0162 0 11.672-2.3425 15.93-6.5938 8.775-8.7788 8.775-23.071 0-31.855-4.2575-4.2525-9.9138-6.5938-15.93-6.5938z" fill="#305d8a"/>
   <path id="path24" d="m355.19 438.3c18.888 18.892 18.888 49.521 0 68.412-18.888 18.882-49.521 18.888-68.412 0-18.888-18.892-18.882-49.526 0-68.412 18.892-18.888 49.525-18.888 68.412 0z" fill="#fff"/>
   <path id="path26" d="m320.99 525.87c-14.259 0-27.666-5.5525-37.745-15.631-20.809-20.814-20.809-54.678 0-75.491 10.084-10.079 23.486-15.631 37.745-15.631 14.264 0 27.666 5.5525 37.745 15.631 20.809 20.814 20.809 54.678 0 75.491-10.079 10.079-23.486 15.631-37.745 15.631zm0-96.744c-11.585 0-22.475 4.5112-30.668 12.699-16.902 16.908-16.902 44.428 0 61.335 8.1925 8.1875 19.082 12.7 30.668 12.7s22.475-4.5112 30.668-12.7c16.902-16.908 16.902-44.428 0-61.335-8.1875-8.1875-19.078-12.699-30.668-12.699z" fill="#305d8a"/>
  </g>
  <path id="rect28" transform="rotate(-45)" d="m-157.15 358.34h100.11v35.033h-100.11z" fill="#9db6c9" stroke-width="1.25"/>
  <path id="path30" d="m167.03 394.33c-1.28 0-2.5612-0.48875-3.5388-1.4662l-24.772-24.772c-1.955-1.955-1.955-5.1225 0-7.0775l70.789-70.789c0.93875-0.9375 2.21-1.4662 3.5388-1.4662 1.33 0 2.6 0.52875 3.5388 1.4662l24.772 24.778c1.955 1.955 1.955 5.1225 0 7.0775l-70.789 70.784c-0.9775 0.9775-2.2575 1.4662-3.5388 1.4662zm-17.695-29.778 17.695 17.695 63.711-63.706-17.695-17.7z" fill="#305d8a" stroke-width="1.25"/>
  <path id="polygon32" transform="matrix(1.25 0 0 1.25 -347.78 -694.4)" d="m496.79 997.23-104.76-127.42 79.28-79.28 127.42 104.77z" fill="#9db6c9"/>
  <path id="path34" d="m273.21 555.6h-0.24375c-1.4075 0-2.7225 0.04-3.6212-1.055l-130.95-158.89c-1.6388-1.9888-1.4962-4.6975 0.3275-6.52l99.1-99.008c1.8275-1.8188 4.7412-1.9112 6.7162-0.27875l159.28 130.98c1.09 0.89875 1.755 2.2238 1.8238 3.6312 0.0675 1.4175-0.465 2.7962-1.4612 3.7938l-127.41 126.65c-0.93875 0.94375-2.215 0.69875-3.54 0.69875zm-124.2-162.4 124.57 151.5 119.62-119.62-151.5-124.57-92.676 92.676z" fill="#305d8a" stroke-width="1.25"/>
  <g id="g38" transform="matrix(1.25 0 0 1.25 -347.78 -694.4)" opacity=".2">
   <path id="polygon36" d="m592.6 895.77-121.02-99.83-37.08 37.06 110.43 110.43z" fill="#9db6c9"/>
  </g>
  <g id="g42" transform="matrix(1.25 0 0 1.25 -347.78 -694.4)" opacity=".2">
   <path id="rect40" transform="matrix(.7071 -.7071 .7071 .7071 -445.5 548.01)" d="m420.73 807.77h36.04v8.008h-36.04z" fill="#9db6c9"/>
  </g>
  <g id="g46" transform="matrix(1.25 0 0 1.25 -347.78 -694.4)" opacity=".2">
   <path id="path44" d="m427.9 805.64s-11.571-3.136-19.591 8.932c0 0 6.14-1.146 9.209 1.45z" fill="#9db6c9"/>
  </g>
  <g id="g50" transform="matrix(1.25 0 0 1.25 -347.78 -694.4)" opacity=".2">
   <path id="polyline48" d="m530.41 968.8 6.03 0.12 31.14-31.15 2.83-2.83-0.24-5.42-39.4 39.4" fill="#9db6c9"/>
  </g>
  <path id="path52" d="m80.244 687.22c0 19.651-15.93 35.576-35.58 35.576s-35.58-15.925-35.58-35.576c0-19.655 15.93-35.585 35.58-35.585s35.58 15.93 35.58 35.585z" fill="#9db6c9" stroke-width="1.25"/>
  <path id="path54" d="m44.656 727.85c-22.378 0-40.585-18.204-40.585-40.581 0-22.381 18.208-40.59 40.585-40.59s40.585 18.208 40.585 40.59c0 22.378-18.208 40.581-40.585 40.581zm0-71.16c-16.859 0-30.574 13.715-30.574 30.579 0 16.855 13.716 30.57 30.574 30.57s30.575-13.715 30.575-30.57c0-16.865-13.716-30.579-30.575-30.579z" fill="#305d8a" stroke-width="1.25"/>
  <g id="g58" transform="matrix(1.25 0 0 1.25 -347.78 -694.4)" opacity=".2">
   <path id="path56" d="m313.52 1080.9v48.919c12.013 0 24.459-10.949 24.459-24.456 1e-3 -13.514-12.446-24.463-24.459-24.463z" fill="#9db6c9"/>
  </g>
  <path id="path60" d="m61.019 687.22c0 9.0288-7.3225 16.351-16.355 16.351s-16.355-7.3225-16.355-16.351c0-9.0362 7.3225-16.36 16.355-16.36s16.355 7.3225 16.355 16.36z" fill="#9db6c9" stroke-width="1.25"/>
  <path id="path62" d="m44.656 708.6c-11.78 0-21.36-9.58-21.36-21.356 0-11.78 9.5812-21.365 21.36-21.365 11.78 0 21.361 9.585 21.361 21.365 0 11.776-9.5812 21.356-21.361 21.356zm0-32.71c-6.2562 0-11.35 5.0925-11.35 11.354 0 6.2575 5.0938 11.346 11.35 11.346s11.35-5.0888 11.35-11.346c0-6.2612-5.0938-11.354-11.35-11.354z" fill="#305d8a" stroke-width="1.25"/>
  <path id="path64" d="m257.46 1009c1.2125-6.0749 1.8862-12.344 1.8862-18.769 0-53.467-44.11-96.809-98.524-96.809s-98.528 43.342-98.528 96.809c0 6.4249 0.67 12.694 1.8862 18.769h193.28z" fill="#9db6c9" stroke-width="1.2391"/>
  <path id="path66" d="m257.46 1014.1h-193.28c-2.39 0-4.4475-1.6659-4.9125-3.974-1.315-6.5726-1.98-13.22-1.98-19.755 0-56.191 46.446-101.9 103.53-101.9s103.53 45.71 103.53 101.9c0 6.5086-0.665 13.152-1.9788 19.75-0.46 2.3081-2.5175 3.9789-4.9138 3.9789zm-189.08-9.8538h184.86c0.72375-4.6532 1.09-9.3052 1.09-13.875 0-50.753-41.954-92.047-93.519-92.047-51.569 0-93.523 41.294-93.523 92.047 0 4.5843 0.36625 9.2363 1.085 13.875z" fill="#305d8a" stroke-width="1.2401"/>
  <g id="g70" transform="matrix(1.25 0 0 1.2282 -347.78 -666.77)" opacity=".2">
   <path id="path68" d="m406.88 1270.3c-13.292 0-25.793 3.324-36.781 9.131 4.161-0.677 8.404-1.123 12.756-1.123 43.531 0 78.818 35.288 78.818 78.819 0 2.456-0.14 4.876-0.367 7.273h22.884c0.97-4.946 1.509-10.05 1.509-15.281 0-43.531-35.288-78.819-78.819-78.819z" fill="#9db6c9"/>
  </g>
  <g id="g74" transform="matrix(1.25 0 0 1.25 -347.78 -694.4)" opacity=".2">
   <path id="polygon72" d="m325.75 1075.1 3.46 1.8 114.28-138.29-2.5-3.34z" fill="#9db6c9"/>
  </g>
  <g id="g78" transform="matrix(1.25 0 0 1.25 -347.78 -694.4)" opacity=".2">
   <path id="polygon76" d="m323.7 1136.5 67.74 131.8h3.67l-68.24-133.2z" fill="#9db6c9"/>
  </g>
 </g>
</svg>
