<?xml version="1.0" encoding="UTF-8" standalone="no"?>
<svg
   xmlns:dc="http://purl.org/dc/elements/1.1/"
   xmlns:cc="http://creativecommons.org/ns#"
   xmlns:rdf="http://www.w3.org/1999/02/22-rdf-syntax-ns#"
   xmlns:svg="http://www.w3.org/2000/svg"
   xmlns="http://www.w3.org/2000/svg"
   xmlns:sodipodi="http://sodipodi.sourceforge.net/DTD/sodipodi-0.dtd"
   xmlns:inkscape="http://www.inkscape.org/namespaces/inkscape"
   id="svg408"
   viewBox="0 0 1547.3311 1297.386"
   version="1.1"
   enable-background="new 0 0 2000 2000"
   sodipodi:docname="laptop.svg"
   width="1547.3311"
   height="1297.386"
   inkscape:version="1.0.1 (c497b03c, 2020-09-10)">
  <sodipodi:namedview
     pagecolor="#ffffff"
     bordercolor="#666666"
     borderopacity="1"
     objecttolerance="10"
     gridtolerance="10"
     guidetolerance="10"
     inkscape:pageopacity="0"
     inkscape:pageshadow="2"
     inkscape:window-width="2560"
     inkscape:window-height="1440"
     id="namedview212"
     showgrid="false"
     inkscape:zoom="0.504"
     inkscape:cx="424.42146"
     inkscape:cy="648.732"
     inkscape:window-x="0"
     inkscape:window-y="0"
     inkscape:window-maximized="0"
     inkscape:current-layer="layer5" />
  <metadata
     id="metadata414">
    <rdf:RDF>
      <cc:Work
         rdf:about="">
        <dc:format>image/svg+xml</dc:format>
        <dc:type
           rdf:resource="http://purl.org/dc/dcmitype/StillImage" />
        <dc:title></dc:title>
      </cc:Work>
    </rdf:RDF>
  </metadata>
  <defs
     id="defs412" />
  <g
     inkscape:groupmode="layer"
     id="layer1"
     inkscape:label="cloud"
     style="display:inline"
     sodipodi:insensitive="true">
    <path
       style="fill:#fff6d5"
       id="path10"
       fill="#A7CFE8"
       d="m 1370.304,1153.232 h -139.87 c -39.832,0 -72.125,-32.245 -72.125,-72.077 0,-39.827 32.293,-72.076 72.125,-72.076 h 48.078 c 39.828,0 72.121,-32.245 72.121,-72.077 0,-39.832 -32.293,-72.077 -72.121,-72.077 h -288.48 c -39.831,0 -72.123,-32.245 -72.123,-72.077 0,-39.831 32.292,-72.077 72.123,-72.077 h 485.18 c 39.827,0 72.119,-32.245 72.119,-72.077 0,-39.832 -32.292,-72.077 -72.119,-72.077 h -345.31 c -39.828,0 -72.117,-32.25 -72.117,-72.077 0,-39.832 32.289,-72.077 72.117,-72.077 h 131.13 c 39.832,0 72.12,-32.246 72.12,-72.077 0,-39.832 -32.288,-72.077 -72.12,-72.077 h -288.48 c -39.827,0 -72.12,-32.246 -72.12,-72.078 0,-39.832 32.293,-72.077 72.12,-72.077 h 43.708 c 39.831,0 72.123,-32.245 72.123,-72.077 C 1088.383,32.249 1056.091,0 1016.26,0 h -437.1 c -39.828,0 -72.12,32.249 -72.12,72.077 0,39.832 32.292,72.077 72.12,72.077 h 26.227 c 39.832,0 72.121,32.246 72.121,72.077 0,39.831 -32.289,72.078 -72.121,72.078 h -48.083 c -39.828,0 -72.12,32.245 -72.12,72.077 0,39.831 32.292,72.077 72.12,72.077 h -8.74 c 39.828,0 72.12,32.246 72.12,72.077 0,39.828 -32.292,72.077 -72.12,72.077 H 72.124 C 32.292,576.617 0,608.862 0,648.694 c 0,39.832 32.292,72.077 72.124,72.077 h 122.38 c 39.828,0 72.12,32.246 72.12,72.077 0,39.832 -32.292,72.077 -72.12,72.077 h -17.483 c -39.832,0 -72.124,32.245 -72.124,72.077 0,39.832 32.292,72.077 72.124,72.077 h 327.82 c 39.828,0 72.12,32.249 72.12,72.076 0,39.832 -32.292,72.077 -72.12,72.077 h -166.1 c -39.832,0 -72.124,32.246 -72.124,72.078 0,39.831 32.292,72.076 72.124,72.076 h 1031.5 c 39.831,0 72.124,-32.245 72.124,-72.076 10e-4,-39.832 -32.292,-72.078 -72.123,-72.078 z" />
  </g>
  <g
     inkscape:groupmode="layer"
     id="layer5"
     inkscape:label="lamp"
     style="display:inline">
    <polygon
       id="polygon12"
       fill="#9db6c9"
       points="323.53,1089.8 450.39,936.79 438.75,926.19 311.52,1080.4 "
       transform="matrix(1.25,0,0,1.25,-347.78116,-692.40439)" />
    <path
       id="path14"
       fill="#305d8a"
       d="m 56.618839,674.84561 c -1.075,0 -2.155,-0.34625 -3.07,-1.05625 l -15.01625,-11.6775 c -1.065,-0.83125 -1.75,-2.0575 -1.90125,-3.4025 -0.14625,-1.34375 0.255,-2.68875 1.115,-3.735 L 196.79634,462.18686 c 0.87125,-1.05625 2.14125,-1.70625 3.505,-1.80375 1.36375,-0.0975 2.7125,0.37125 3.725,1.29 l 14.54625,13.2475 c 1.98,1.7975 2.18875,4.83875 0.48375,6.8975 L 60.481339,673.03061 c -0.98625,1.18625 -2.41375,1.8075 -3.85625,1.8075 z m -7.86875,-17.47 7.1175,5.53375 152.437501,-183.8 -7.12625,-6.49125 -152.425001,184.7625 z"
       style="stroke-width:1.25" />
    <polygon
       id="polygon16"
       fill="#9db6c9"
       points="405.62,1280.3 327.04,1126.8 314.27,1133.8 389.6,1280.3 "
       transform="matrix(1.25,0,0,1.25,-347.78116,-692.40439)" />
    <path
       id="path18"
       fill="#305d8a"
       d="m 159.24384,912.97061 h -20.02125 c -1.87625,0 -3.5925,-1.0475 -4.45375,-2.71875 L 40.605089,727.13936 c -1.23625,-2.41 -0.3325,-5.3725 2.04375,-6.6775 l 15.96,-8.76 c 1.1925,-0.645 2.57625,-0.79125 3.88125,-0.395 1.29,0.395 2.365,1.3 2.98625,2.5025 l 98.225001,191.875 c 0.7925,1.55375 0.72375,3.4075 -0.18625,4.8925 -0.9075,1.48625 -2.52625,2.39625 -4.27125,2.39625 z m -16.96625,-10.01125 h 8.77875 l -92.145001,-180 -7.175,3.93375 90.541251,176.075 z"
       style="stroke-width:1.25" />
    <path
       id="path20"
       fill="#9db6c9"
       d="m 202.43134,316.99561 c 10.74375,10.75375 10.74375,28.18375 0,38.9325 -10.755,10.74875 -28.185,10.74875 -38.9375,0 -10.745,-10.74875 -10.745,-28.17875 0,-38.9325 10.7525,-10.74875 28.1825,-10.74875 38.9375,0 z"
       style="stroke-width:1.25" />
    <path
       id="path22"
       fill="#305d8a"
       d="m 182.95634,368.99561 c -8.69125,0 -16.86375,-3.3825 -23.00875,-9.5275 -12.68,-12.68375 -12.68,-33.32125 0,-46.01125 6.145,-6.145 14.3175,-9.5275 23.00875,-9.5275 8.69125,0 16.86375,3.3825 23.0075,9.5275 12.68,12.68875 12.68,33.32625 0,46.01125 -6.145,6.145 -14.3175,9.5275 -23.0075,9.5275 z m 0,-55.05375 c -6.0175,0 -11.6725,2.34125 -15.93125,6.59375 -8.77375,8.78375 -8.77375,23.07625 0,31.855 4.2575,4.2525 9.91375,6.59375 15.93125,6.59375 6.01625,0 11.6725,-2.3425 15.93,-6.59375 8.775,-8.77875 8.775,-23.07125 0,-31.855 -4.2575,-4.2525 -9.91375,-6.59375 -15.93,-6.59375 z"
       style="stroke-width:1.25" />
    <path
       id="path24"
       fill="#ffffff"
       d="m 355.19384,440.29561 c 18.8875,18.8925 18.8875,49.52125 0,68.4125 -18.8875,18.8825 -49.52125,18.8875 -68.4125,0 -18.8875,-18.8925 -18.8825,-49.52625 0,-68.4125 18.8925,-18.8875 49.525,-18.8875 68.4125,0 z"
       style="stroke-width:1.25" />
    <path
       id="path26"
       fill="#305d8a"
       d="m 320.99384,527.87061 c -14.25875,0 -27.66625,-5.5525 -37.745,-15.63125 -20.80875,-20.81375 -20.80875,-54.6775 0,-75.49125 10.08375,-10.07875 23.48625,-15.63125 37.745,-15.63125 14.26375,0 27.66625,5.5525 37.745,15.63125 20.80875,20.81375 20.80875,54.6775 0,75.49125 -10.07875,10.07875 -23.48625,15.63125 -37.745,15.63125 z m 0,-96.74375 c -11.585,0 -22.475,4.51125 -30.6675,12.69875 -16.9025,16.9075 -16.9025,44.4275 0,61.335 8.1925,8.1875 19.0825,12.7 30.6675,12.7 11.585,0 22.475,-4.51125 30.6675,-12.7 16.9025,-16.9075 16.9025,-44.4275 0,-61.335 -8.1875,-8.1875 -19.0775,-12.69875 -30.6675,-12.69875 z"
       style="stroke-width:1.25" />
    <rect
       id="rect28"
       fill="#9db6c9"
       height="35.033413"
       width="100.10654"
       y="359.75909"
       x="-158.56555"
       transform="rotate(-45)"
       style="stroke-width:1.24999" />
    <path
       id="path30"
       fill="#305d8a"
       d="m 167.03134,396.33311 c -1.28,0 -2.56125,-0.48875 -3.53875,-1.46625 l -24.7725,-24.7725 c -1.955,-1.955 -1.955,-5.1225 0,-7.0775 l 70.78875,-70.78875 c 0.93875,-0.9375 2.21,-1.46625 3.53875,-1.46625 1.33,0 2.6,0.52875 3.53875,1.46625 l 24.7725,24.7775 c 1.955,1.955 1.955,5.1225 0,7.0775 l -70.78875,70.78375 c -0.9775,0.9775 -2.2575,1.46625 -3.53875,1.46625 z m -17.695,-29.7775 17.695,17.695 63.71125,-63.70625 -17.695,-17.7 z"
       style="stroke-width:1.25" />
    <polygon
       id="polygon32"
       fill="#9db6c9"
       points="392.03,869.81 471.31,790.53 598.73,895.3 496.79,997.23 "
       transform="matrix(1.25,0,0,1.25,-347.78116,-692.40439)" />
    <path
       id="path34"
       fill="#305d8a"
       d="m 273.20634,557.59561 h -0.24375 c -1.4075,0 -2.7225,0.04 -3.62125,-1.055 l -130.95,-158.8875 c -1.63875,-1.98875 -1.49625,-4.6975 0.3275,-6.52 l 99.1,-99.0075 c 1.8275,-1.81875 4.74125,-1.91125 6.71625,-0.27875 l 159.275,130.975 c 1.09,0.89875 1.755,2.22375 1.82375,3.63125 0.0675,1.4175 -0.465,2.79625 -1.46125,3.79375 l -127.4125,126.65 c -0.93875,0.94375 -2.215,0.69875 -3.54,0.69875 z m -124.20375,-162.4 124.56625,151.5 119.615,-119.615 -151.5,-124.56625 -92.67625,92.67625 z"
       style="stroke-width:1.25" />
    <g
       id="g38"
       opacity="0.2"
       transform="matrix(1.25,0,0,1.25,-347.78116,-692.40439)">
      <polygon
         id="polygon36"
         fill="#9db6c9"
         points="471.58,795.94 434.5,833 544.93,943.43 592.6,895.77 " />
    </g>
    <g
       id="g42"
       opacity="0.2"
       transform="matrix(1.25,0,0,1.25,-347.78116,-692.40439)">
      <rect
         id="rect40"
         fill="#9db6c9"
         height="8.0080004"
         width="36.040001"
         y="807.77002"
         x="420.73001"
         transform="matrix(0.7071,-0.7071,0.7071,0.7071,-445.5,548.01)" />
    </g>
    <g
       id="g46"
       opacity="0.2"
       transform="matrix(1.25,0,0,1.25,-347.78116,-692.40439)">
      <path
         id="path44"
         fill="#9db6c9"
         d="m 427.9,805.64 c 0,0 -11.571,-3.136 -19.591,8.932 0,0 6.14,-1.146 9.209,1.45 z" />
    </g>
    <g
       id="g50"
       opacity="0.2"
       transform="matrix(1.25,0,0,1.25,-347.78116,-692.40439)">
      <polyline
         id="polyline48"
         fill="#9db6c9"
         points="530.41 968.8 536.44 968.92 567.58 937.77 570.41 934.94 570.17 929.52 530.77 968.92" />
    </g>
    <path
       id="path52"
       fill="#9db6c9"
       d="m 80.243839,689.22061 c 0,19.65125 -15.93,35.57625 -35.58,35.57625 -19.65,0 -35.58,-15.925 -35.58,-35.57625 0,-19.655 15.93,-35.585 35.58,-35.585 19.65,0 35.58,15.93 35.58,35.585 z"
       style="stroke-width:1.25" />
    <path
       id="path54"
       fill="#305d8a"
       d="m 44.656339,729.84561 c -22.3775,0 -40.585,-18.20375 -40.585,-40.58125 0,-22.38125 18.2075,-40.59 40.585,-40.59 22.3775,0 40.585,18.2075 40.585,40.59 0,22.3775 -18.2075,40.58125 -40.585,40.58125 z m 0,-71.16 c -16.85875,0 -30.57375,13.715 -30.57375,30.57875 0,16.855 13.71625,30.57 30.57375,30.57 16.8575,0 30.575,-13.715 30.575,-30.57 0,-16.865 -13.71625,-30.57875 -30.575,-30.57875 z"
       style="stroke-width:1.25" />
    <g
       id="g58"
       opacity="0.2"
       transform="matrix(1.25,0,0,1.25,-347.78116,-692.40439)">
      <path
         id="path56"
         fill="#9db6c9"
         d="m 313.52,1080.9 v 48.919 c 12.013,0 24.459,-10.949 24.459,-24.456 0.001,-13.514 -12.446,-24.463 -24.459,-24.463 z" />
    </g>
    <path
       id="path60"
       fill="#9db6c9"
       d="m 61.018839,689.22061 c 0,9.02875 -7.3225,16.35125 -16.355,16.35125 -9.0325,0 -16.355,-7.3225 -16.355,-16.35125 0,-9.03625 7.3225,-16.36 16.355,-16.36 9.0325,0 16.355,7.3225 16.355,16.36 z"
       style="stroke-width:1.25" />
    <path
       id="path62"
       fill="#305d8a"
       d="m 44.656339,710.59561 c -11.78,0 -21.36,-9.58 -21.36,-21.35625 0,-11.78 9.58125,-21.365 21.36,-21.365 11.78,0 21.36125,9.585 21.36125,21.365 0,11.77625 -9.58125,21.35625 -21.36125,21.35625 z m 0,-32.71 c -6.25625,0 -11.35,5.0925 -11.35,11.35375 0,6.2575 5.09375,11.34625 11.35,11.34625 6.25625,0 11.35,-5.08875 11.35,-11.34625 0,-6.26125 -5.09375,-11.35375 -11.35,-11.35375 z"
       style="stroke-width:1.25" />
    <path
       id="path64"
       fill="#9db6c9"
       d="m 257.45634,1013.0956 c 1.2125,-6.1825 1.88625,-12.5625 1.88625,-19.10122 0,-54.4138 -44.11,-98.52377 -98.52375,-98.52377 -54.41375,0 -98.527501,44.10997 -98.527501,98.52377 0,6.53872 0.67,12.91872 1.88625,19.10122 H 257.45259 Z"
       style="stroke-width:1.25" />
    <path
       id="path66"
       fill="#305d8a"
       d="M 257.45634,1018.0956 H 64.181339 c -2.39,0 -4.4475,-1.6925 -4.9125,-4.0375 -1.315,-6.6775 -1.98,-13.4312 -1.98,-20.07002 0,-57.0887 46.446251,-103.52872 103.533751,-103.52872 57.0875,0 103.52875,46.44002 103.52875,103.52872 0,6.61252 -0.665,13.36252 -1.97875,20.06502 -0.46,2.345 -2.5175,4.0425 -4.91375,4.0425 z M 68.381339,1008.0844 H 253.24384 c 0.72375,-4.7275 1.09,-9.45382 1.09,-14.09632 0,-51.5637 -41.95375,-93.51747 -93.51875,-93.51747 -51.56875,0 -93.522501,41.95377 -93.522501,93.51747 0,4.6575 0.36625,9.38382 1.085,14.09632 z"
       style="stroke-width:1.25" />
    <g
       id="g70"
       opacity="0.2"
       transform="matrix(1.25,0,0,1.25,-347.78116,-692.40439)">
      <path
         id="path68"
         fill="#9db6c9"
         d="m 406.88,1270.3 c -13.292,0 -25.793,3.324 -36.781,9.131 4.161,-0.677 8.404,-1.123 12.756,-1.123 43.531,0 78.818,35.288 78.818,78.819 0,2.456 -0.14,4.876 -0.367,7.273 h 22.884 c 0.97,-4.946 1.509,-10.05 1.509,-15.281 0,-43.531 -35.288,-78.819 -78.819,-78.819 z" />
    </g>
    <g
       id="g74"
       opacity="0.2"
       transform="matrix(1.25,0,0,1.25,-347.78116,-692.40439)">
      <polygon
         id="polygon72"
         fill="#9db6c9"
         points="329.21,1076.9 443.49,938.61 440.99,935.27 325.75,1075.1 " />
    </g>
    <g
       id="g78"
       opacity="0.2"
       transform="matrix(1.25,0,0,1.25,-347.78116,-692.40439)">
      <polygon
         id="polygon76"
         fill="#9db6c9"
         points="391.44,1268.3 395.11,1268.3 326.87,1135.1 323.7,1136.5 " />
    </g>
  </g>
  <g
     inkscape:groupmode="layer"
     id="layer3"
     inkscape:label="cactus"
     style="display:inline"
     sodipodi:insensitive="true">
    <path
       id="path80"
       fill="#afddb5"
       d="m 1361.304,591.562 c -7.085,14.003 -22.727,20.35 -34.939,14.167 -12.203,-6.174 -16.36,-22.54 -9.271,-36.543 7.086,-14.007 22.729,-20.35 34.936,-14.171 12.211,6.179 16.361,22.539 9.274,36.547 z" />
    <path
       id="path82"
       fill="#305d8a"
       d="m 1336.304,612.092 c -4.169,0 -8.142,-0.938 -11.814,-2.796 -6.948,-3.52 -11.898,-9.882 -13.939,-17.925 -1.991,-7.841 -0.959,-16.365 2.904,-24.002 5.757,-11.375 16.948,-18.731 28.512,-18.731 4.168,0 8.142,0.942 11.806,2.796 14.159,7.164 19.114,25.973 11.042,41.927 -5.76,11.38 -16.948,18.731 -28.511,18.731 z m 5.662,-55.446 c -8.571,0 -16.956,5.631 -21.363,14.339 -2.991,5.909 -3.805,12.451 -2.291,18.415 1.463,5.764 4.942,10.292 9.796,12.748 2.538,1.287 5.295,1.936 8.196,1.936 8.571,0 16.955,-5.627 21.362,-14.335 6.081,-12.017 2.71,-25.997 -7.509,-31.166 -2.536,-1.284 -5.293,-1.937 -8.191,-1.937 z" />
    <g
       id="g86"
       opacity="0.38"
       transform="translate(-223.396,-351.268)">
      <path
         id="path84"
         fill="#9db6c9"
         d="m 1575.4,906.28 c -0.499,-0.254 -1.016,-0.454 -1.524,-0.665 3.223,7.418 3.074,16.732 -1.212,25.199 -6.796,13.429 -21.448,19.783 -33.411,14.833 2.111,4.856 5.655,8.908 10.483,11.348 12.213,6.183 27.854,-0.164 34.939,-14.167 7.088,-14.009 2.938,-30.369 -9.275,-36.548 z" />
    </g>
    <path
       id="path88"
       fill="#afddb5"
       d="m 1339.404,603.562 c 16.212,30.892 7.625,67.334 -19.177,81.399 -26.811,14.065 -61.676,0.422 -77.884,-30.47 -16.213,-30.889 -7.63,-67.33 19.177,-81.4 26.806,-14.065 61.672,-0.421 77.884,30.471 z" />
    <path
       id="path90"
       fill="#305d8a"
       d="m 1297.604,694.532 c -23.505,0 -46.554,-14.978 -58.715,-38.155 -8.29,-15.793 -10.738,-33.473 -6.894,-49.787 3.891,-16.518 13.748,-29.668 27.756,-37.02 7.586,-3.981 15.853,-5.999 24.572,-5.999 23.506,0 46.555,14.977 58.72,38.154 8.286,15.794 10.738,33.478 6.894,49.788 -3.895,16.521 -13.749,29.669 -27.756,37.021 -7.586,3.98 -15.856,5.998 -24.577,5.998 z m -13.28,-122.95 c -7.409,0 -14.425,1.712 -20.85,5.083 -11.923,6.257 -20.335,17.539 -23.686,31.765 -3.398,14.434 -1.201,30.142 6.194,44.227 10.793,20.573 31.057,33.868 51.621,33.868 7.41,0 14.43,-1.712 20.854,-5.083 11.919,-6.253 20.331,-17.535 23.682,-31.761 3.402,-14.437 1.205,-30.146 -6.19,-44.23 -10.796,-20.573 -31.06,-33.869 -51.625,-33.869 z" />
    <g
       id="g94"
       opacity="0.38"
       transform="translate(-223.396,-351.268)">
      <path
         id="path92"
         fill="#9db6c9"
         d="m 1562.8,954.83 c -16.212,-30.893 -51.078,-44.536 -77.884,-30.47 -1.014,0.532 -1.943,1.153 -2.906,1.748 22.748,1.999 44.153,19.529 52.447,45.564 8.725,27.389 0.188,55.517 -19.208,69.727 9.698,1.057 19.478,-0.5 28.374,-5.169 26.802,-14.066 35.389,-50.508 19.177,-81.4 z" />
    </g>
    <ellipse
       id="ellipse96"
       fill="#afddb5"
       ry="23.024969"
       rx="34.03743"
       cy="327.12988"
       cx="1423.9961"
       transform="rotate(18.583515)"
       style="stroke-width:1.00004" />
    <path
       id="path98"
       fill="#305d8a"
       d="m 1253.104,792.232 c -5.419,0 -10.93,-0.932 -16.376,-2.762 -20.222,-6.8 -32.276,-23.377 -27.448,-37.743 3.372,-10.03 14.215,-16.26 28.293,-16.26 5.419,0 10.93,0.931 16.377,2.761 20.221,6.801 32.275,23.377 27.447,37.744 -3.372,10.029 -14.215,16.26 -28.293,16.26 z m -15.532,-48.756 c -10.371,0 -18.493,4.238 -20.698,10.801 -3.289,9.775 6.972,22.414 22.402,27.6 4.626,1.557 9.275,2.346 13.827,2.346 10.371,0 18.493,-4.238 20.698,-10.8 3.289,-9.776 -6.973,-22.415 -22.402,-27.601 -4.625,-1.556 -9.275,-2.346 -13.827,-2.346 z" />
    <g
       id="g102"
       opacity="0.38"
       transform="translate(-223.396,-351.268)">
      <path
         id="path100"
         fill="#9db6c9"
         d="m 1476.1,1093.3 c -17.816,-5.99 -35.546,-1.075 -39.597,10.977 -0.544,1.619 -0.794,3.289 -0.81,4.975 7.637,-3.188 17.992,-3.434 28.393,0.066 15.424,5.186 25.838,16.842 25.735,27.697 5.443,-2.272 9.519,-6.029 11.203,-11.043 4.052,-12.052 -7.105,-26.682 -24.924,-32.672 z" />
    </g>
    <path
       id="path104"
       fill="#afddb5"
       d="m 1461.204,663.732 c 8.149,12.361 -0.055,32.156 -18.332,44.212 -18.273,12.056 -39.703,11.802 -47.855,-0.56 -8.149,-12.36 0.055,-32.158 18.328,-44.211 18.281,-12.056 39.702,-11.806 47.859,0.559 z" />
    <path
       id="path106"
       fill="#305d8a"
       d="m 1415.604,720.832 c -10.637,0 -19.126,-3.993 -23.909,-11.238 -9.354,-14.191 -0.621,-36.512 19.466,-49.76 9.331,-6.151 19.807,-9.542 29.501,-9.542 10.637,0 19.126,3.993 23.908,11.238 9.354,14.188 0.618,36.508 -19.471,49.76 -9.326,6.152 -19.802,9.542 -29.495,9.542 z m 25.057,-62.531 c -8.142,0 -17.054,2.917 -25.09,8.22 -16.126,10.633 -23.998,28.339 -17.189,38.662 3.249,4.928 9.365,7.641 17.222,7.641 8.145,0 17.053,-2.921 25.085,-8.22 16.127,-10.637 23.998,-28.343 17.194,-38.662 -3.25,-4.928 -9.366,-7.641 -17.222,-7.641 z" />
    <g
       id="g110"
       opacity="0.38"
       transform="translate(-223.396,-351.268)">
      <path
         id="path108"
         fill="#9db6c9"
         d="m 1684.6,1015 c -1.857,-2.815 -4.427,-4.97 -7.469,-6.526 4.356,13.93 -8.481,30.725 -28.983,37.717 -11.982,4.087 -23.933,3.902 -32.817,0.324 -0.21,4.419 0.743,8.587 3.082,12.138 8.152,12.361 29.582,12.615 47.855,0.56 18.277,-12.057 26.481,-31.852 18.332,-44.213 z" />
    </g>
    <ellipse
       id="ellipse112"
       fill="#afddb5"
       ry="107.11"
       rx="88.094002"
       cy="753.83197"
       cx="1339.504" />
    <path
       id="path114"
       fill="#305d8a"
       d="m 1339.504,864.932 c -50.785,0 -92.099,-49.847 -92.099,-111.12 0,-61.273 41.313,-111.12 92.099,-111.12 50.786,0 92.099,49.846 92.099,111.12 0,61.274 -41.314,111.12 -92.099,111.12 z m 0,-214.23 c -46.366,0 -84.09,46.257 -84.09,103.11 0,56.854 37.724,103.11 84.09,103.11 46.366,0 84.09,-46.256 84.09,-103.11 -10e-4,-56.853 -37.724,-103.11 -84.09,-103.11 z" />
    <g
       id="g118"
       opacity="0.38"
       transform="translate(-223.396,-351.268)">
      <path
         id="path116"
         fill="#9db6c9"
         d="m 1562.9,998 c -6.179,0 -12.2,0.782 -18.019,2.252 40.011,10.113 70.074,53.213 70.074,104.86 0,51.647 -30.063,94.75 -70.074,104.86 5.818,1.471 11.84,2.252 18.019,2.252 48.654,0 88.094,-47.957 88.094,-107.11 0,-59.153 -39.44,-107.11 -88.094,-107.11 z" />
    </g>
    <path
       id="path120"
       fill="#e4c6aa"
       d="m 1443.604,990.432 c 0,12.537 -10.167,22.7 -22.704,22.7 h -158.81 c -12.536,0 -22.704,-10.163 -22.704,-22.7 l -20.021,-146.81 c 0,-12.536 10.168,-22.699 22.704,-22.699 h 198.85 c 12.537,0 22.704,10.163 22.704,22.699 l -20.022,146.81 z" />
    <path
       id="path122"
       fill="#305d8a"
       d="m 1420.904,1017.132 h -158.81 c -14.633,0 -26.556,-11.825 -26.708,-26.423 L 1215.4,844.159 c -0.023,-0.176 -0.035,-0.359 -0.035,-0.54 0,-14.727 11.981,-26.704 26.708,-26.704 h 198.85 c 14.727,0 26.708,11.978 26.708,26.704 0,0.181 -0.012,0.364 -0.035,0.54 l -19.985,146.55 c -0.154,14.597 -12.077,26.423 -26.71,26.423 z m -197.53,-173.77 19.986,146.52 c 0.023,0.176 0.035,0.359 0.035,0.539 0,10.309 8.388,18.696 18.699,18.696 h 158.81 c 10.313,0 18.7,-8.388 18.7,-18.696 0,-0.18 0.011,-0.363 0.035,-0.539 l 19.986,-146.52 c -0.141,-10.191 -8.475,-18.438 -18.7,-18.438 h -198.85 c -10.225,-10e-4 -18.558,8.247 -18.698,18.438 z" />
    <g
       id="g126"
       opacity="0.38"
       transform="translate(-223.396,-351.268)">
      <path
         id="path124"
         fill="#aa9e80"
         d="m 1664.3,1172.2 h -20.021 c 12.537,0 22.704,10.163 22.704,22.699 l -20.021,146.81 c 0,12.537 -10.167,22.7 -22.704,22.7 h 20.021 c 12.537,0 22.704,-10.163 22.704,-22.7 l 20.021,-146.81 c 0,-12.536 -10.167,-22.699 -22.704,-22.699 z" />
    </g>
    <line
       id="line184"
       fill="#ffffff"
       y2="594.672"
       y1="584.37201"
       x2="1373.504"
       x1="1351.604" />
    <path
       id="path186"
       fill="#305d8a"
       d="m 1373.504,598.682 c -0.57,0 -1.153,-0.121 -1.704,-0.383 l -21.845,-10.3 c -1.997,-0.942 -2.854,-3.328 -1.912,-5.33 0.935,-1.994 3.328,-2.866 5.33,-1.912 l 21.845,10.3 c 1.997,0.942 2.854,3.328 1.911,5.33 -0.68,1.446 -2.123,2.295 -3.625,2.295 z" />
    <line
       id="line188"
       fill="#ffffff"
       y2="538.612"
       y1="552.84198"
       x2="1338.004"
       x1="1339.204" />
    <path
       id="path190"
       fill="#305d8a"
       d="m 1339.204,556.852 c -2.062,0 -3.813,-1.58 -3.984,-3.671 l -1.189,-14.23 c -0.188,-2.202 1.45,-4.137 3.656,-4.321 2.249,-0.262 4.138,1.451 4.321,3.656 l 1.188,14.23 c 0.188,2.201 -1.45,4.137 -3.656,4.321 -0.113,0.011 -0.226,0.015 -0.336,0.015 z" />
    <line
       id="line192"
       fill="#ffffff"
       y2="556.85199"
       y1="567.552"
       x2="1307.4041"
       x1="1326.004" />
    <path
       id="path194"
       fill="#305d8a"
       d="m 1326.004,571.552 c -0.68,0 -1.365,-0.172 -1.998,-0.536 l -18.547,-10.699 c -1.916,-1.107 -2.573,-3.555 -1.467,-5.471 1.103,-1.913 3.543,-2.569 5.471,-1.466 l 18.548,10.699 c 1.915,1.107 2.572,3.554 1.466,5.471 -0.743,1.283 -2.088,2.002 -3.473,2.002 z" />
    <line
       id="line196"
       fill="#ffffff"
       y2="566.20197"
       y1="567.552"
       x2="1373.504"
       x1="1364.704" />
    <path
       id="path198"
       fill="#305d8a"
       d="m 1364.704,571.552 c -1.944,0 -3.648,-1.416 -3.953,-3.398 -0.337,-2.186 1.164,-4.227 3.351,-4.563 l 8.759,-1.345 c 2.187,-0.34 4.224,1.165 4.563,3.352 0.337,2.186 -1.165,4.227 -3.351,4.563 l -8.76,1.345 c -0.203,0.03 -0.41,0.046 -0.609,0.046 z" />
    <line
       id="line200"
       fill="#ffffff"
       y2="707.33197"
       y1="722.83197"
       x2="1387.004"
       x1="1373.504" />
    <path
       id="path202"
       fill="#305d8a"
       d="m 1373.504,726.832 c -0.938,0 -1.881,-0.328 -2.639,-0.993 -1.662,-1.459 -1.831,-3.989 -0.372,-5.65 l 13.546,-15.455 c 1.458,-1.666 3.996,-1.822 5.65,-0.371 1.662,1.458 1.83,3.989 0.371,5.651 l -13.545,15.453 c -0.791,0.903 -1.9,1.365 -3.011,1.365 z" />
    <line
       id="line204"
       fill="#ffffff"
       y2="707.33197"
       y1="690.53204"
       x2="1463.604"
       x1="1441.604" />
    <path
       id="path206"
       fill="#305d8a"
       d="m 1463.604,711.332 c -0.849,0 -1.705,-0.271 -2.429,-0.825 l -22.023,-16.857 c -1.756,-1.346 -2.092,-3.856 -0.746,-5.612 1.341,-1.756 3.867,-2.088 5.611,-0.747 l 22.023,16.858 c 1.756,1.346 2.092,3.855 0.746,5.611 -0.785,1.032 -1.977,1.572 -3.182,1.572 z" />
    <line
       id="line208"
       fill="#ffffff"
       y2="718.83197"
       y1="712.13202"
       x2="1437.604"
       x1="1435.304" />
    <path
       id="path210"
       fill="#305d8a"
       d="m 1437.604,722.832 c -1.662,0 -3.215,-1.043 -3.786,-2.701 l -2.287,-6.656 c -0.72,-2.092 0.391,-4.371 2.483,-5.088 2.096,-0.723 4.371,0.396 5.087,2.483 l 2.288,6.656 c 0.719,2.092 -0.392,4.371 -2.483,5.087 -0.431,0.15 -0.872,0.219 -1.302,0.219 z" />
    <line
       id="line212"
       fill="#ffffff"
       y2="650.03198"
       y1="670.23199"
       x2="1410.204"
       x1="1415.804" />
    <path
       id="path214"
       fill="#305d8a"
       d="m 1415.804,674.232 c -1.752,0 -3.363,-1.161 -3.856,-2.933 l -5.591,-20.135 c -0.591,-2.131 0.656,-4.337 2.787,-4.931 2.132,-0.586 4.337,0.657 4.931,2.788 l 5.593,20.135 c 0.591,2.131 -0.657,4.337 -2.788,4.931 -0.361,0.098 -0.721,0.145 -1.076,0.145 z" />
    <line
       id="line216"
       fill="#ffffff"
       y2="644.73199"
       y1="652.73199"
       x2="1443.604"
       x1="1439.604" />
    <path
       id="path218"
       fill="#305d8a"
       d="m 1439.604,656.732 c -0.602,0 -1.212,-0.137 -1.786,-0.422 -1.979,-0.989 -2.78,-3.395 -1.791,-5.374 l 4.004,-8.008 c 0.989,-1.979 3.398,-2.777 5.374,-1.791 1.979,0.989 2.779,3.395 1.79,5.373 l -4.005,8.008 c -0.703,1.404 -2.115,2.214 -3.586,2.214 z" />
    <line
       id="line220"
       fill="#ffffff"
       y2="664.73199"
       y1="670.23199"
       x2="1477.604"
       x1="1455.604" />
    <path
       id="path222"
       fill="#305d8a"
       d="m 1455.604,674.232 c -1.799,0 -3.433,-1.221 -3.883,-3.043 -0.532,-2.146 0.778,-4.316 2.925,-4.848 l 22.023,-5.451 c 2.144,-0.521 4.317,0.777 4.849,2.924 0.532,2.147 -0.777,4.317 -2.924,4.85 l -22.024,5.451 c -0.325,0.078 -0.646,0.117 -0.966,0.117 z" />
    <line
       id="line224"
       fill="#ffffff"
       y2="681.53204"
       y1="680.93195"
       x2="1470.9041"
       x1="1463.604" />
    <path
       id="path226"
       fill="#305d8a"
       d="m 1470.904,685.532 c -0.113,0 -0.231,0 -0.348,-0.016 l -7.34,-0.629 c -2.202,-0.188 -3.837,-2.128 -3.645,-4.333 0.188,-2.197 2.104,-3.919 4.332,-3.645 l 7.341,0.629 c 2.201,0.188 3.835,2.128 3.645,4.333 -0.18,2.086 -1.928,3.661 -3.985,3.661 z" />
    <line
       id="line228"
       fill="#ffffff"
       y2="556.63202"
       y1="576.65198"
       x2="1279.4041"
       x1="1275.4041" />
    <path
       id="path230"
       fill="#305d8a"
       d="m 1275.404,580.662 c -0.263,0 -0.523,-0.023 -0.79,-0.078 -2.166,-0.434 -3.574,-2.542 -3.14,-4.712 l 4.004,-20.021 c 0.434,-2.17 2.53,-3.594 4.712,-3.14 2.166,0.434 3.574,2.542 3.141,4.712 l -4.005,20.022 c -0.379,1.904 -2.053,3.217 -3.922,3.217 z" />
    <line
       id="line232"
       fill="#ffffff"
       y2="567.552"
       y1="574.922"
       x2="1248.704"
       x1="1258.4041" />
    <path
       id="path234"
       fill="#305d8a"
       d="m 1258.404,578.932 c -0.845,0 -1.694,-0.266 -2.417,-0.817 l -9.71,-7.375 c -1.764,-1.337 -2.108,-3.848 -0.767,-5.608 1.334,-1.767 3.853,-2.104 5.607,-0.766 l 9.71,7.375 c 1.764,1.337 2.107,3.848 0.767,5.607 -0.786,1.04 -1.982,1.584 -3.19,1.584 z" />
    <line
       id="line236"
       fill="#ffffff"
       y2="664.73199"
       y1="658.73199"
       x2="1234.204"
       x1="1258.4041" />
    <path
       id="path238"
       fill="#305d8a"
       d="m 1234.204,668.732 c -1.795,0 -3.43,-1.216 -3.883,-3.038 -0.532,-2.147 0.777,-4.321 2.92,-4.853 l 24.21,-6.007 c 2.143,-0.517 4.317,0.774 4.854,2.921 0.531,2.146 -0.778,4.321 -2.921,4.853 l -24.21,6.007 c -0.325,0.078 -0.65,0.117 -0.97,0.117 z" />
    <line
       id="line240"
       fill="#ffffff"
       y2="623.37201"
       y1="629.02197"
       x2="1258.4041"
       x1="1275.4041" />
    <path
       id="path242"
       fill="#305d8a"
       d="m 1275.404,633.032 c -0.418,0 -0.845,-0.066 -1.263,-0.204 l -16.987,-5.654 c -2.101,-0.7 -3.233,-2.968 -2.538,-5.064 0.696,-2.1 2.969,-3.222 5.064,-2.538 l 16.986,5.655 c 2.101,0.7 3.234,2.968 2.539,5.064 -0.56,1.681 -2.123,2.741 -3.801,2.741 z" />
    <line
       id="line244"
       fill="#ffffff"
       y2="584.37201"
       y1="601.34198"
       x2="1294.104"
       x1="1290.9041" />
    <path
       id="path246"
       fill="#305d8a"
       d="m 1290.904,605.352 c -0.242,0 -0.488,-0.02 -0.735,-0.067 -2.174,-0.403 -3.609,-2.495 -3.207,-4.669 l 3.152,-16.971 c 0.402,-2.174 2.495,-3.625 4.669,-3.207 2.175,0.403 3.609,2.495 3.206,4.669 l -3.151,16.971 c -0.359,1.928 -2.041,3.274 -3.934,3.274 z" />
    <line
       id="line248"
       fill="#ffffff"
       y2="584.37201"
       y1="604.01202"
       x2="1335.4041"
       x1="1322.804" />
    <path
       id="path250"
       fill="#305d8a"
       d="m 1322.804,608.022 c -0.743,0 -1.498,-0.208 -2.166,-0.641 -1.862,-1.196 -2.395,-3.676 -1.193,-5.534 l 12.682,-19.642 c 1.2,-1.861 3.684,-2.394 5.533,-1.193 1.861,1.196 2.394,3.676 1.193,5.533 l -12.682,19.643 c -0.766,1.189 -2.052,1.834 -3.367,1.834 z" />
    <line
       id="line252"
       fill="#ffffff"
       y2="626.19202"
       y1="623.37201"
       x2="1355.504"
       x1="1332.804" />
    <path
       id="path254"
       fill="#305d8a"
       d="m 1355.504,630.202 c -0.164,0 -0.332,-0.008 -0.501,-0.032 l -22.692,-2.827 c -2.193,-0.274 -3.75,-2.272 -3.476,-4.47 0.273,-2.194 2.24,-3.738 4.469,-3.477 l 22.693,2.827 c 2.193,0.274 3.749,2.272 3.476,4.47 -0.25,2.027 -1.98,3.509 -3.969,3.509 z" />
    <line
       id="line256"
       fill="#ffffff"
       y2="634.71198"
       y1="640.41199"
       x2="1215.304"
       x1="1236.804" />
    <path
       id="path258"
       fill="#305d8a"
       d="m 1236.804,644.422 c -0.34,0 -0.688,-0.042 -1.031,-0.132 l -21.465,-5.698 c -2.135,-0.567 -3.41,-2.761 -2.843,-4.899 0.566,-2.135 2.769,-3.406 4.899,-2.843 l 21.465,5.698 c 2.135,0.567 3.41,2.761 2.843,4.899 -0.478,1.79 -2.096,2.975 -3.868,2.975 z" />
    <line
       id="line260"
       fill="#ffffff"
       y2="612.09198"
       y1="613.362"
       x2="1234.204"
       x1="1226.004" />
    <path
       id="path262"
       fill="#305d8a"
       d="m 1226.004,617.362 c -1.939,0 -3.645,-1.412 -3.953,-3.39 -0.341,-2.187 1.157,-4.231 3.343,-4.572 l 8.138,-1.263 c 2.206,-0.329 4.235,1.158 4.571,3.344 0.341,2.186 -1.157,4.231 -3.344,4.571 l -8.137,1.264 c -0.208,0.03 -0.414,0.046 -0.618,0.046 z" />
    <line
       id="line264"
       fill="#ffffff"
       y2="626.19202"
       y1="637.56201"
       x2="1307.4041"
       x1="1303.4041" />
    <path
       id="path266"
       fill="#305d8a"
       d="m 1303.404,641.572 c -0.442,0 -0.892,-0.074 -1.33,-0.227 -2.088,-0.735 -3.183,-3.022 -2.447,-5.107 l 4.004,-11.368 c 0.734,-2.088 3.03,-3.171 5.107,-2.448 2.087,0.735 3.183,3.023 2.447,5.107 l -4.005,11.368 c -0.577,1.647 -2.126,2.675 -3.776,2.675 z" />
    <line
       id="line268"
       fill="#ffffff"
       y2="584.37201"
       y1="594.672"
       x2="1240.804"
       x1="1251.4041" />
    <path
       id="path270"
       fill="#305d8a"
       d="m 1251.404,598.682 c -1.009,0 -2.019,-0.379 -2.797,-1.138 l -10.569,-10.3 c -1.584,-1.541 -1.615,-4.079 -0.07,-5.662 1.545,-1.584 4.082,-1.607 5.662,-0.07 l 10.57,10.3 c 1.584,1.541 1.614,4.078 0.07,5.662 -0.782,0.805 -1.826,1.208 -2.866,1.208 z" />
    <line
       id="line272"
       fill="#ffffff"
       y2="652.73199"
       y1="650.03198"
       x2="1284.104"
       x1="1277.4041" />
    <path
       id="path274"
       fill="#305d8a"
       d="m 1284.104,656.732 c -0.497,0 -1.001,-0.09 -1.49,-0.285 l -6.672,-2.671 c -2.053,-0.825 -3.05,-3.156 -2.229,-5.209 0.825,-2.053 3.159,-3.046 5.208,-2.229 l 6.672,2.671 c 2.053,0.825 3.051,3.155 2.229,5.208 -0.629,1.565 -2.131,2.515 -3.718,2.515 z" />
    <line
       id="line276"
       fill="#ffffff"
       y2="728.83197"
       y1="748.13202"
       x2="1226.004"
       x1="1240.804" />
    <path
       id="path278"
       fill="#305d8a"
       d="m 1240.804,752.132 c -1.208,0 -2.401,-0.543 -3.19,-1.579 l -14.739,-19.354 c -1.337,-1.76 -0.996,-4.27 0.763,-5.611 1.76,-1.341 4.271,-1.001 5.612,0.764 l 14.738,19.352 c 1.337,1.76 0.997,4.271 -0.763,5.611 -0.724,0.553 -1.576,0.817 -2.421,0.817 z" />
    <line
       id="line280"
       fill="#ffffff"
       y2="738.53204"
       y1="744.73199"
       x2="1212.304"
       x1="1219.304" />
    <path
       id="path282"
       fill="#305d8a"
       d="m 1219.304,748.732 c -0.945,0 -1.896,-0.332 -2.659,-1.009 l -7.062,-6.266 c -1.654,-1.466 -1.803,-3.995 -0.336,-5.653 1.466,-1.654 4.004,-1.804 5.653,-0.337 l 7.063,6.265 c 1.654,1.466 1.803,3.996 0.337,5.654 -0.79,0.892 -1.893,1.346 -2.996,1.346 z" />
    <line
       id="line284"
       fill="#ffffff"
       y2="770.83197"
       y1="763.83197"
       x2="1208.004"
       x1="1226.004" />
    <path
       id="path286"
       fill="#305d8a"
       d="m 1208.004,774.832 c -1.604,0 -3.116,-0.971 -3.734,-2.559 -0.798,-2.061 0.227,-4.38 2.288,-5.181 l 18.073,-7.008 c 2.05,-0.794 4.376,0.224 5.182,2.288 0.798,2.061 -0.227,4.38 -2.287,5.181 l -18.074,7.008 c -0.474,0.184 -0.968,0.271 -1.448,0.271 z" />
    <line
       id="line288"
       fill="#ffffff"
       y2="788.23199"
       y1="779.73199"
       x2="1219.304"
       x1="1226.004" />
    <path
       id="path290"
       fill="#305d8a"
       d="m 1219.304,792.232 c -0.871,0 -1.748,-0.282 -2.482,-0.869 -1.732,-1.372 -2.025,-3.891 -0.649,-5.623 l 6.727,-8.478 c 1.372,-1.732 3.891,-2.029 5.623,-0.649 1.732,1.373 2.024,3.891 0.648,5.623 l -6.726,8.479 c -0.791,0.996 -1.96,1.517 -3.141,1.517 z" />
    <line
       id="line292"
       fill="#ffffff"
       y2="792.23199"
       y1="772.83197"
       x2="1236.804"
       x1="1240.804" />
    <path
       id="path294"
       fill="#305d8a"
       d="m 1236.804,796.232 c -0.269,0 -0.539,-0.027 -0.813,-0.082 -2.167,-0.45 -3.559,-2.569 -3.113,-4.731 l 4.004,-19.354 c 0.446,-2.167 2.559,-3.551 4.732,-3.112 2.166,0.45 3.559,2.569 3.113,4.731 l -4.005,19.353 c -0.39,1.893 -2.06,3.195 -3.918,3.195 z" />
    <line
       id="line296"
       fill="#ffffff"
       y2="646.73199"
       y1="670.23199"
       x2="1384.204"
       x1="1376.204" />
    <path
       id="path298"
       fill="#305d8a"
       d="m 1376.204,674.232 c -0.43,0 -0.864,-0.066 -1.294,-0.215 -2.092,-0.716 -3.211,-2.988 -2.495,-5.083 l 8.009,-23.471 c 0.711,-2.092 2.991,-3.218 5.084,-2.495 2.092,0.715 3.21,2.987 2.495,5.083 l -8.01,23.47 c -0.567,1.663 -2.123,2.711 -3.789,2.711 z" />
    <line
       id="line300"
       fill="#ffffff"
       y2="640.41199"
       y1="650.03198"
       x2="1362.604"
       x1="1361.304" />
    <path
       id="path302"
       fill="#305d8a"
       d="m 1361.304,654.032 c -0.168,0 -0.336,-0.012 -0.508,-0.031 -2.194,-0.277 -3.747,-2.283 -3.469,-4.478 l 1.224,-9.651 c 0.281,-2.194 2.261,-3.707 4.478,-3.469 2.193,0.278 3.746,2.284 3.469,4.478 l -1.224,9.651 c -0.259,2.022 -1.983,3.5 -3.97,3.5 z" />
    <line
       id="line304"
       fill="#ffffff"
       y2="667.43201"
       y1="681.53204"
       x2="1270.704"
       x1="1290.9041" />
    <path
       id="path306"
       fill="#305d8a"
       d="m 1290.904,685.532 c -0.79,0 -1.584,-0.23 -2.284,-0.715 l -20.204,-14.051 c -1.815,-1.263 -2.265,-3.757 -1.001,-5.575 1.258,-1.819 3.749,-2.269 5.575,-1.002 l 20.205,14.05 c 1.814,1.264 2.265,3.759 1.001,5.577 -0.778,1.118 -2.025,1.716 -3.292,1.716 z" />
    <line
       id="line308"
       fill="#ffffff"
       y2="636.72198"
       y1="648.73199"
       x2="1327.4041"
       x1="1323.4041" />
    <path
       id="path310"
       fill="#305d8a"
       d="m 1323.404,652.732 c -0.418,0 -0.844,-0.066 -1.267,-0.208 -2.096,-0.695 -3.229,-2.964 -2.53,-5.063 l 4.005,-12.013 c 0.699,-2.096 2.952,-3.238 5.064,-2.53 2.095,0.696 3.229,2.964 2.529,5.064 l -4.005,12.013 c -0.558,1.677 -2.118,2.737 -3.796,2.737 z" />
    <line
       id="line312"
       fill="#ffffff"
       y2="674.53204"
       y1="667.43201"
       x2="1322.804"
       x1="1316.704" />
    <path
       id="path314"
       fill="#305d8a"
       d="m 1322.804,678.532 c -1.121,0 -2.236,-0.47 -3.029,-1.384 l -6.073,-7.028 c -1.447,-1.673 -1.259,-4.203 0.41,-5.65 1.67,-1.442 4.196,-1.263 5.65,0.411 l 6.073,7.027 c 1.446,1.673 1.26,4.203 -0.41,5.65 -0.759,0.654 -1.689,0.974 -2.621,0.974 z" />
    <line
       id="line316"
       fill="#ffffff"
       y2="685.53204"
       y1="664.73199"
       x2="1338.004"
       x1="1340.604" />
    <path
       id="path318"
       fill="#305d8a"
       d="m 1338.004,689.532 c -0.164,0 -0.333,-0.012 -0.505,-0.031 -2.194,-0.274 -3.746,-2.275 -3.473,-4.474 l 2.608,-20.78 c 0.273,-2.186 2.229,-3.715 4.474,-3.472 2.194,0.273 3.746,2.275 3.472,4.473 l -2.607,20.78 c -0.254,2.021 -1.979,3.504 -3.969,3.504 z" />
    <line
       id="line320"
       fill="#ffffff"
       y2="685.53204"
       y1="693.43195"
       x2="1417.504"
       x1="1401.504" />
    <path
       id="path322"
       fill="#305d8a"
       d="m 1401.504,697.432 c -1.478,0 -2.897,-0.817 -3.594,-2.229 -0.981,-1.982 -0.168,-4.384 1.814,-5.365 l 16.018,-7.915 c 1.994,-0.981 4.392,-0.168 5.364,1.814 0.982,1.982 0.169,4.385 -1.813,5.366 l -16.018,7.914 c -0.571,0.282 -1.177,0.415 -1.771,0.415 z" />
    <line
       id="line324"
       fill="#ffffff"
       y2="704.83197"
       y1="704.83197"
       x2="1423.504"
       x1="1411.504" />
    <path
       id="path326"
       fill="#305d8a"
       d="m 1423.504,708.832 h -12.013 c -2.214,0 -4.004,-1.791 -4.004,-4.005 0,-2.213 1.79,-4.004 4.004,-4.004 h 12.013 c 2.214,0 4.004,1.791 4.004,4.004 0,2.214 -1.79,4.005 -4.004,4.005 z" />
    <line
       id="line328"
       fill="#ffffff"
       y2="735.53204"
       y1="722.83197"
       x2="1261.4041"
       x1="1245.4041" />
    <path
       id="path330"
       fill="#305d8a"
       d="m 1261.404,739.532 c -0.869,0 -1.744,-0.281 -2.483,-0.863 l -16.018,-12.678 c -1.731,-1.373 -2.025,-3.892 -0.652,-5.627 1.368,-1.732 3.879,-2.03 5.627,-0.653 l 16.018,12.678 c 1.731,1.372 2.024,3.891 0.652,5.627 -0.791,0.996 -1.965,1.516 -3.144,1.516 z" />
    <line
       id="line332"
       fill="#ffffff"
       y2="710.83197"
       y1="711.83197"
       x2="1252.704"
       x1="1258.4041" />
    <path
       id="path334"
       fill="#305d8a"
       d="m 1258.404,715.832 c -0.239,0 -0.478,-0.021 -0.721,-0.063 l -5.705,-1.037 c -2.174,-0.398 -3.62,-2.482 -3.226,-4.657 0.395,-2.178 2.471,-3.605 4.657,-3.226 l 5.705,1.036 c 2.175,0.398 3.621,2.483 3.227,4.657 -0.352,1.937 -2.038,3.29 -3.937,3.29 z" />
    <line
       id="line336"
       fill="#ffffff"
       y2="710.83197"
       y1="698.93195"
       x2="1292.504"
       x1="1277.4041" />
    <path
       id="path338"
       fill="#305d8a"
       d="m 1292.504,714.832 c -0.865,0 -1.736,-0.277 -2.472,-0.855 l -15.106,-11.873 c -1.736,-1.364 -2.041,-3.883 -0.672,-5.623 1.364,-1.736 3.879,-2.049 5.623,-0.672 l 15.105,11.872 c 1.736,1.364 2.041,3.883 0.673,5.623 -0.79,1.005 -1.963,1.528 -3.151,1.528 z" />
    <line
       id="line340"
       fill="#ffffff"
       y2="712.13202"
       y1="702.13202"
       x2="1313.604"
       x1="1307.4041" />
    <path
       id="path342"
       fill="#305d8a"
       d="m 1313.604,716.132 c -1.346,0 -2.655,-0.677 -3.414,-1.9 l -6.187,-10.03 c -1.157,-1.885 -0.574,-4.353 1.307,-5.514 1.885,-1.161 4.349,-0.571 5.514,1.306 l 6.187,10.03 c 1.157,1.885 0.574,4.353 -1.307,5.514 -0.658,0.402 -1.385,0.594 -2.1,0.594 z" />
    <line
       id="line344"
       fill="#ffffff"
       y2="748.13202"
       y1="760.83197"
       x2="1391.9041"
       x1="1380.304" />
    <path
       id="path346"
       fill="#305d8a"
       d="m 1380.304,764.832 c -0.97,0 -1.939,-0.348 -2.706,-1.052 -1.631,-1.498 -1.74,-4.027 -0.247,-5.658 l 11.631,-12.682 c 1.493,-1.631 4.031,-1.74 5.657,-0.246 1.632,1.497 1.74,4.027 0.247,5.658 l -11.63,12.682 c -0.79,0.861 -1.869,1.298 -2.952,1.298 z" />
    <line
       id="line348"
       fill="#ffffff"
       y2="764.83197"
       y1="767.33197"
       x2="1409.504"
       x1="1401.504" />
    <path
       id="path350"
       fill="#305d8a"
       d="m 1401.504,771.332 c -1.705,0 -3.285,-1.096 -3.82,-2.812 -0.661,-2.108 0.517,-4.357 2.628,-5.014 l 8.008,-2.503 c 2.104,-0.672 4.353,0.513 5.014,2.628 0.661,2.107 -0.517,4.356 -2.628,5.013 l -8.009,2.503 c -0.395,0.126 -0.798,0.185 -1.193,0.185 z" />
    <line
       id="line352"
       fill="#ffffff"
       y2="738.53204"
       y1="741.63202"
       x2="1436.4041"
       x1="1413.004" />
    <path
       id="path354"
       fill="#305d8a"
       d="m 1413.004,745.632 c -1.979,0 -3.694,-1.462 -3.965,-3.473 -0.293,-2.193 1.247,-4.207 3.438,-4.5 l 23.428,-3.133 c 2.217,-0.27 4.207,1.251 4.5,3.438 0.294,2.194 -1.247,4.207 -3.437,4.501 l -23.428,3.132 c -0.18,0.024 -0.359,0.035 -0.536,0.035 z" />
    <line
       id="line356"
       fill="#ffffff"
       y2="758.53204"
       y1="760.83197"
       x2="1433.604"
       x1="1428.104" />
    <path
       id="path358"
       fill="#305d8a"
       d="m 1428.104,764.832 c -1.549,0 -3.022,-0.903 -3.676,-2.416 -0.876,-2.03 0.059,-4.388 2.089,-5.264 l 5.415,-2.339 c 2.038,-0.875 4.392,0.063 5.264,2.089 0.876,2.028 -0.059,4.387 -2.088,5.263 l -5.416,2.339 c -0.517,0.224 -1.056,0.328 -1.588,0.328 z" />
    <line
       id="line360"
       fill="#ffffff"
       y2="804.93195"
       y1="792.23199"
       x2="1251.4041"
       x1="1266.9041" />
    <path
       id="path362"
       fill="#305d8a"
       d="m 1251.404,808.932 c -1.161,0 -2.314,-0.5 -3.104,-1.47 -1.399,-1.713 -1.146,-4.238 0.567,-5.635 l 15.531,-12.682 c 1.722,-1.4 4.239,-1.146 5.636,0.567 1.4,1.712 1.146,4.238 -0.567,5.634 l -15.531,12.682 c -0.748,0.607 -1.644,0.904 -2.532,0.904 z" />
    <line
       id="line364"
       fill="#ffffff"
       y2="775.53204"
       y1="772.83197"
       x2="1290.9041"
       x1="1275.4041" />
    <path
       id="path366"
       fill="#305d8a"
       d="m 1290.904,779.532 c -0.224,0 -0.454,-0.02 -0.681,-0.058 l -15.532,-2.668 c -2.182,-0.371 -3.645,-2.443 -3.27,-4.621 0.372,-2.179 2.441,-3.637 4.623,-3.27 l 15.532,2.667 c 2.182,0.372 3.645,2.444 3.269,4.622 -0.331,1.952 -2.025,3.328 -3.941,3.328 z" />
    <line
       id="line368"
       fill="#ffffff"
       y2="792.23199"
       y1="802.23199"
       x2="1300.104"
       x1="1284.9041" />
    <path
       id="path370"
       fill="#305d8a"
       d="m 1284.904,806.232 c -1.298,0 -2.573,-0.63 -3.344,-1.796 -1.22,-1.845 -0.715,-4.328 1.131,-5.549 l 15.134,-10.011 c 1.842,-1.224 4.324,-0.719 5.549,1.131 1.22,1.846 0.715,4.328 -1.13,5.549 l -15.134,10.011 c -0.681,0.449 -1.447,0.665 -2.206,0.665 z" />
    <line
       id="line372"
       fill="#ffffff"
       y2="798.53204"
       y1="782.53204"
       x2="1322.804"
       x1="1329.104" />
    <path
       id="path374"
       fill="#305d8a"
       d="m 1322.804,802.532 c -0.492,0 -0.989,-0.09 -1.474,-0.281 -2.057,-0.813 -3.062,-3.141 -2.249,-5.197 l 6.34,-16.017 c 0.817,-2.058 3.155,-3.059 5.196,-2.248 2.057,0.813 3.063,3.14 2.249,5.196 l -6.339,16.018 c -0.621,1.572 -2.131,2.529 -3.723,2.529 z" />
    <line
       id="line376"
       fill="#ffffff"
       y2="804.93195"
       y1="797.23199"
       x2="1347.604"
       x1="1344.104" />
    <path
       id="path378"
       fill="#305d8a"
       d="m 1347.604,808.932 c -1.518,0 -2.972,-0.863 -3.645,-2.334 l -3.52,-7.677 c -0.923,-2.009 -0.039,-4.387 1.971,-5.31 2.041,-0.916 4.396,-0.035 5.311,1.971 l 3.52,7.676 c 0.923,2.011 0.039,4.388 -1.971,5.311 -0.543,0.247 -1.111,0.363 -1.666,0.363 z" />
    <line
       id="line380"
       fill="#ffffff"
       y2="738.53204"
       y1="744.73199"
       x2="1284.9041"
       x1="1305.4041" />
    <path
       id="path382"
       fill="#305d8a"
       d="m 1305.404,748.732 c -0.388,0 -0.782,-0.055 -1.174,-0.176 l -20.475,-6.266 c -2.111,-0.645 -3.305,-2.886 -2.655,-5.001 0.646,-2.115 2.875,-3.315 5.002,-2.655 l 20.475,6.265 c 2.111,0.646 3.305,2.886 2.655,5.002 -0.528,1.724 -2.111,2.831 -3.828,2.831 z" />
    <line
       id="line384"
       fill="#ffffff"
       y2="758.53204"
       y1="766.13202"
       x2="1358.804"
       x1="1355.504" />
    <path
       id="path386"
       fill="#305d8a"
       d="m 1355.504,770.132 c -0.536,0 -1.083,-0.109 -1.607,-0.336 -2.026,-0.892 -2.944,-3.254 -2.057,-5.279 l 3.335,-7.595 c 0.892,-2.024 3.242,-2.936 5.279,-2.057 2.025,0.892 2.944,3.254 2.057,5.279 l -3.336,7.595 c -0.66,1.501 -2.131,2.393 -3.671,2.393 z" />
    <line
       id="line388"
       fill="#ffffff"
       y2="793.23199"
       y1="790.53204"
       x2="1392.804"
       x1="1380.204" />
    <path
       id="path390"
       fill="#305d8a"
       d="m 1392.804,797.232 c -0.272,0 -0.551,-0.026 -0.829,-0.085 l -12.681,-2.671 c -2.162,-0.458 -3.552,-2.581 -3.093,-4.744 0.457,-2.162 2.596,-3.554 4.743,-3.092 l 12.682,2.67 c 2.161,0.458 3.551,2.581 3.093,4.743 -0.399,1.885 -2.06,3.179 -3.915,3.179 z" />
    <line
       id="line392"
       fill="#ffffff"
       y2="868.93195"
       y1="868.93195"
       x2="1459.604"
       x1="1223.304" />
    <path
       id="path394"
       fill="#305d8a"
       d="m 1459.604,872.932 h -236.25 c -2.213,0 -4.005,-1.791 -4.005,-4.005 0,-2.213 1.792,-4.004 4.005,-4.004 h 236.25 c 2.213,0 4.004,1.791 4.004,4.004 0,2.214 -1.791,4.005 -4.004,4.005 z" />
  </g>
  <g
     inkscape:groupmode="layer"
     id="layer6"
     inkscape:label="laptop"
     style="display:inline"
     sodipodi:insensitive="true">
    <path
       id="path128"
       fill="#ffffff"
       d="m 1175.304,958.432 c 0,12.537 -10.167,22.7 -22.704,22.7 H 417.17 c -12.537,0 -22.704,-10.163 -22.704,-22.7 v -495.18 c 0,-12.537 10.167,-22.7 22.704,-22.7 h 735.43 c 12.537,0 22.704,10.163 22.704,22.7 z" />
    <path
       id="path130"
       fill="#305d8a"
       d="m 1152.604,985.132 h -735.43 c -14.727,0 -26.708,-11.979 -26.708,-26.705 v -495.18 c 0,-14.727 11.981,-26.705 26.708,-26.705 h 735.43 c 14.727,0 26.709,11.978 26.709,26.705 v 495.18 c 10e-4,14.726 -11.982,26.704 -26.708,26.704 z m -735.43,-540.58 c -10.312,0 -18.7,8.388 -18.7,18.696 v 495.18 c 0,10.308 8.388,18.696 18.7,18.696 h 735.43 c 10.312,0 18.7,-8.389 18.7,-18.696 v -495.18 c 0,-10.308 -8.389,-18.696 -18.7,-18.696 z" />
    <g
       id="g134"
       opacity="0.2"
       transform="translate(-223.396,-351.268)">
      <path
         id="path132"
         fill="#9db6c9"
         d="m 1372,791.78 h -7.328 c 9.952,0 18.02,8.067 18.02,18.019 v 490.52 h 12.013 v -485.84 c -10e-4,-12.538 -10.168,-22.7 -22.705,-22.7 z" />
    </g>
    <g
       id="g138"
       opacity="0.2"
       transform="translate(-223.396,-351.268)">
      <path
         id="path136"
         fill="#9db6c9"
         d="m 1350.6,1189.5 c 0,12.537 -10.167,22.699 -22.704,22.699 h -639.32 c -12.537,0 -22.704,-10.162 -22.704,-22.699 V 846.48 c 0,-12.537 10.167,-22.7 22.704,-22.7 h 639.32 c 12.537,0 22.704,10.164 22.704,22.7 z" />
    </g>
    <path
       id="path140"
       fill="#efefef"
       d="m 1127.204,950.332 c 0,12.536 -10.167,22.7 -22.704,22.7 H 465.18 c -12.537,0 -22.704,-10.164 -22.704,-22.7 v -443.12 c 0,-12.537 10.167,-22.7 22.704,-22.7 h 639.32 c 12.537,0 22.704,10.163 22.704,22.7 z" />
    <path
       id="path142"
       fill="#305d8a"
       d="m 1104.504,977.132 h -639.32 c -14.727,0 -26.708,-11.978 -26.708,-26.704 v -443.12 c 0,-14.727 11.981,-26.704 26.708,-26.704 h 639.32 c 14.727,0 26.708,11.978 26.708,26.704 v 443.12 c 0,14.727 -11.982,26.705 -26.708,26.705 z m -639.32,-488.52 c -10.312,0 -18.699,8.388 -18.699,18.695 v 443.12 c 0,10.308 8.388,18.695 18.699,18.695 h 639.32 c 10.312,0 18.699,-8.388 18.699,-18.695 v -443.12 c 0,-10.308 -8.388,-18.695 -18.699,-18.695 z" />
    <g
       id="g146"
       opacity="0.41"
       transform="translate(-223.396,-351.268)">
      <path
         id="path144"
         fill="#ffffff"
         d="M 1326.9,839.83 H 894.63 l 451.98,316.34 V 862.53 c 0,-17.022 -8.591,-22.7 -19.709,-22.7 z" />
    </g>
    <path
       id="path148"
       fill="#ffffff"
       d="m 1310.204,953.032 h -1046.7 c -12.537,0 -18.289,10.691 -14.695,22.7 1.196,4.005 3.645,13.3 4.677,17.347 3.101,12.146 13.499,20.018 26.036,20.018 h 1014.7 c 12.537,0 22.935,-7.872 26.036,-20.018 1.032,-4.047 3.48,-13.342 4.677,-17.347 3.593,-12.008 -2.159,-22.7 -14.696,-22.7 z" />
    <path
       id="path150"
       fill="#305d8a"
       d="m 1294.204,1017.132 h -1014.7 c -14.375,0 -26.399,-9.256 -29.915,-23.033 -0.993,-3.887 -3.449,-13.226 -4.634,-17.19 -2.296,-7.66 -1.333,-15.117 2.639,-20.447 3.555,-4.774 9.198,-7.402 15.892,-7.402 h 1046.7 c 6.694,0 12.337,2.628 15.892,7.402 3.974,5.33 4.936,12.787 2.64,20.451 -1.185,3.961 -3.641,13.3 -4.634,17.187 -3.514,13.776 -15.538,23.032 -29.914,23.032 z m -1030.7,-60.065 c -4.161,0 -7.434,1.443 -9.471,4.177 -2.444,3.28 -2.948,8.156 -1.388,13.369 1.232,4.129 3.684,13.44 4.72,17.507 2.64,10.327 11.337,17.003 22.157,17.003 h 1014.7 c 10.821,0 19.518,-6.676 22.157,-17.003 1.036,-4.066 3.488,-13.378 4.72,-17.503 1.561,-5.217 1.056,-10.093 -1.388,-13.373 -2.038,-2.733 -5.311,-4.177 -9.472,-4.177 h -1046.7 z" />
    <g
       id="g154"
       opacity="0.2"
       transform="translate(-223.396,-351.268)">
      <path
         id="path152"
         fill="#9db6c9"
         d="M 1076.9,1304.3 H 898.18 v 13.339 c 0,12.537 10.167,22.7 22.704,22.7 h 174.83 c 12.536,0 22.703,-10.163 22.703,-22.7 V 1304.3 Z" />
    </g>
    <path
       id="path156"
       fill="#9db6c9"
       d="m 853.504,953.032 h -174.54 c 1.329,11.271 10.902,20.022 22.532,20.022 h 166.82 c 11.63,0 21.202,-8.752 22.532,-20.022 h -37.342 z" />
    <path
       id="path158"
       fill="#305d8a"
       d="m 868.304,977.132 h -166.82 c -13.526,0 -24.925,-10.129 -26.509,-23.557 -0.133,-1.135 0.223,-2.276 0.985,-3.129 0.759,-0.855 1.85,-1.345 2.992,-1.345 h 211.88 c 1.142,0 2.232,0.489 2.991,1.345 0.763,0.853 1.119,1.994 0.985,3.129 -1.583,13.428 -12.982,23.557 -26.508,23.557 z M 684.024,957.11 c 2.702,7.085 9.561,12.013 17.456,12.013 H 868.3 c 7.896,0 14.754,-4.928 17.457,-12.013 h -201.73 z" />
    <g
       id="g162"
       opacity="0.2"
       transform="translate(-223.396,-351.268)">
      <path
         id="path160"
         fill="#9db6c9"
         d="m 480.37,1348.4 c 4.802,7.478 13.057,12.014 22.559,12.014 h 1014.7 c 9.503,0 17.758,-4.536 22.56,-12.014 h -1059.8 z" />
    </g>
    <g
       id="g166"
       opacity="0.33"
       transform="translate(-223.396,-351.268)">
      <path
         id="path164"
         fill="#9db6c9"
         d="M 1327.9,835.82 H 688.58 c -12.537,0 -22.704,10.163 -22.704,22.7 v 12.013 c 0,-12.537 10.167,-22.7 22.704,-22.7 h 639.32 c 12.537,0 22.704,10.164 22.704,22.7 V 858.52 c 0,-12.537 -10.167,-22.7 -22.704,-22.7 z" />
    </g>
    <g
       id="g170"
       opacity="0.2"
       transform="translate(-223.396,-351.268)">
      <rect
         id="rect168"
         fill="#9db6c9"
         height="8.0089998"
         width="764.82001"
         y="1292.3"
         x="617.84003" />
    </g>
    <circle
       id="circle172"
       fill="#305d8a"
       r="4.5050001"
       cy="461.03198"
       cx="786.90399" />
    <g
       id="g176"
       opacity="0.2"
       transform="translate(-223.396,-351.268)">
      <path
         id="path174"
         fill="#9db6c9"
         d="m 1366.6,791.98 c 0.665,-0.078 1.314,-0.203 2.002,-0.203 h -2.002 z" />
    </g>
  </g>
  <g
     inkscape:groupmode="layer"
     id="layer2"
     inkscape:label="coffee_mug"
     style="display:inline"
     sodipodi:insensitive="true">
    <path
       id="path396"
       fill="#eae8e1"
       d="m 1337.429,885.88199 c 0,-45.447 -36.714,-82.2945 -82.0905,-82.5765 v -11.028 c 0,-18.8055 -15.2505,-34.0485 -34.056,-34.0485 H 1085.177 c -18.8055,0 -34.056,15.243 -34.056,34.0485 v 184.16995 c 0,18.8056 15.2505,34.05006 34.056,34.05006 h 136.1055 c 18.8055,0 34.056,-15.24446 34.056,-34.05006 v -7.989 c 45.378,-0.2805 82.0905,-37.12945 82.0905,-82.57495 z m -82.089,46.5375 v -93.0765 c 25.4805,0.276 46.0515,20.994 46.0515,46.5375 0,25.5435 -20.571,46.263 -46.0515,46.539 z"
       style="stroke-width:1.5" />
    <path
       id="path398"
       fill="#305d8a"
       d="m 1221.284,1016.532 h -136.1055 c -22.0905,0 -40.062,-17.96846 -40.062,-40.05756 V 792.30449 c 0,-22.0905 17.973,-40.056 40.062,-40.056 h 136.1055 c 22.0905,0 40.062,17.967 40.062,40.056 v 5.256 c 45.7815,3.366 82.0905,41.8095 82.0905,88.347 0,46.5375 -36.309,84.98095 -82.0905,88.34855 v 2.2169 c 0,22.0906 -17.9715,40.05906 -40.062,40.05906 z M 1085.1785,764.26199 c -15.468,0 -28.05,12.5835 -28.05,28.044 v 184.17005 c 0,15.4635 12.582,28.04396 28.05,28.04396 h 136.1055 c 15.4695,0 28.05,-12.58196 28.05,-28.04396 v -7.989 c 0,-3.3015 2.6685,-5.9821 5.97,-6.0061 41.9685,-0.258 76.119,-34.60795 76.119,-76.57045 0,-41.9625 -34.1505,-76.3125 -76.119,-76.5705 -3.303,-0.0225 -5.97,-2.7045 -5.97,-6.006 v -11.028 c 0,-15.462 -12.582,-28.044 -28.05,-28.044 z m 170.16,174.195 c -1.584,0 -3.096,-0.621 -4.2225,-1.7355 -1.143,-1.1265 -1.782,-2.661 -1.782,-4.2705 v -93.0765 c 0,-1.6065 0.639,-3.144 1.782,-4.2705 1.1445,-1.1325 2.757,-1.8465 4.287,-1.7355 28.671,0.3105 51.993,23.88 51.993,52.5435 0,28.665 -23.322,52.2345 -51.993,52.5435 -0.023,10e-4 -0.041,10e-4 -0.064,10e-4 z m 6.006,-92.553 v 80.019 c 19.245,-3.144 34.038,-19.9605 34.038,-40.0095 0,-20.049 -14.793,-36.8655 -34.038,-40.0095 z"
       style="stroke-width:1.5" />
    <g
       id="g402"
       opacity="0.2"
       transform="matrix(1.5,0,0,1.5,394.64891,-1036.0681)">
      <path
         id="path400"
         fill="#9db6c9"
         d="m 573.8,1226.3 v -7.352 c 0,-12.537 -10.167,-22.699 -22.704,-22.699 h -29.352 v 168.18 h 29.352 c 12.537,0 22.704,-10.163 22.704,-22.7 v -5.326 c 30.251,-0.188 54.727,-24.753 54.727,-55.051 0,-30.298 -24.476,-54.864 -54.727,-55.051 z m 0,86.076 v -62.051 c 16.987,0.184 30.701,13.996 30.701,31.025 0,17.029 -13.714,30.842 -30.701,31.026 z" />
    </g>
    <line
       id="line404"
       fill="#ffffff"
       y2="782.23187"
       y1="782.23187"
       x2="1219.304"
       x1="1087.1689"
       style="stroke-width:1.5" />
    <path
       id="path406"
       fill="#305d8a"
       d="m 1219.304,788.23199 h -132.141 c -3.3195,0 -6.006,-2.6865 -6.006,-6.0075 0,-3.3195 2.6865,-6.006 6.006,-6.006 h 132.141 c 3.3195,0 6.0075,2.6865 6.0075,6.006 0,3.321 -2.688,6.0075 -6.0075,6.0075 z"
       style="stroke-width:1.5" />
  </g>
  <g
     inkscape:groupmode="layer"
     id="layer7"
     inkscape:label="table"
     style="display:inline"
     sodipodi:insensitive="true">
    <path
       id="path178"
       fill="#305d8a"
       d="m 1547.704,1017.132 h -20.021 c -2.213,0 -4.005,-1.792 -4.005,-4.005 0,-2.213 1.792,-4.004 4.005,-4.004 h 20.021 c 2.214,0 4.005,1.791 4.005,4.004 0,2.213 -1.791,4.005 -4.005,4.005 z m -52.055,0 h -32.034 c -2.214,0 -4.004,-1.792 -4.004,-4.005 0,-2.213 1.79,-4.004 4.004,-4.004 h 32.034 c 2.213,0 4.004,1.791 4.004,4.004 0,2.213 -1.792,4.005 -4.004,4.005 z" />
    <path
       id="path180"
       fill="#305d8a"
       d="m 1463.604,1017.132 h -1309.4 c -2.213,0 -4.004,-1.792 -4.004,-4.005 0,-2.213 1.791,-4.004 4.004,-4.004 h 1309.4 c 2.214,0 4.004,1.791 4.004,4.004 0,2.213 -1.79,4.005 -4.004,4.005 z" />
    <path
       id="path182"
       fill="#305d8a"
       d="m 150.224,1017.132 c -2.209,0 -4.024,-1.792 -4.024,-4.005 0,-2.213 1.771,-4.004 3.985,-4.004 h 0.039 c 2.213,0 4.004,1.791 4.004,4.004 0,2.213 -1.791,4.005 -4.004,4.005 z m -32.073,0 H 86.116 c -2.213,0 -4.004,-1.792 -4.004,-4.005 0,-2.213 1.791,-4.004 4.004,-4.004 h 32.035 c 2.213,0 4.004,1.791 4.004,4.004 0,2.213 -1.791,4.005 -4.004,4.005 z m -64.068,0 H 22.048 c -2.213,0 -4.004,-1.792 -4.004,-4.005 0,-2.213 1.791,-4.004 4.004,-4.004 h 32.035 c 2.213,0 4.004,1.791 4.004,4.004 0,2.213 -1.792,4.005 -4.004,4.005 z" />
  </g>
</svg>
