<?xml version="1.0" encoding="UTF-8"?>
<svg id="svg408" enable-background="new 0 0 2000 2000" version="1.1" viewBox="0 0 1547.3 1297.4" xmlns="http://www.w3.org/2000/svg" xmlns:cc="http://creativecommons.org/ns#" xmlns:dc="http://purl.org/dc/elements/1.1/" xmlns:rdf="http://www.w3.org/1999/02/22-rdf-syntax-ns#">
 <metadata id="metadata414">
  <rdf:RDF>
   <cc:Work rdf:about="">
    <dc:format>image/svg+xml</dc:format>
    <dc:type rdf:resource="http://purl.org/dc/dcmitype/StillImage"/>
    <dc:title/>
    <cc:license rdf:resource=""/>
   </cc:Work>
  </rdf:RDF>
 </metadata>
 <g id="laptop">
  <path id="path128" d="m1175.3 958.43c0 12.537-10.167 22.7-22.704 22.7h-735.43c-12.537 0-22.704-10.163-22.704-22.7v-495.18c0-12.537 10.167-22.7 22.704-22.7h735.43c12.537 0 22.704 10.163 22.704 22.7z" fill="#fff"/>
  <path id="path130" d="m1152.6 985.13h-735.43c-14.727 0-26.708-11.979-26.708-26.705v-495.18c0-14.727 11.981-26.705 26.708-26.705h735.43c14.727 0 26.709 11.978 26.709 26.705v495.18c1e-3 14.726-11.982 26.704-26.708 26.704zm-735.43-540.58c-10.312 0-18.7 8.388-18.7 18.696v495.18c0 10.308 8.388 18.696 18.7 18.696h735.43c10.312 0 18.7-8.389 18.7-18.696v-495.18c0-10.308-8.389-18.696-18.7-18.696z" fill="#305d8a"/>
  <g id="g134" transform="translate(-223.4 -351.27)" opacity=".2">
   <path id="path132" d="m1372 791.78h-7.328c9.952 0 18.02 8.067 18.02 18.019v490.52h12.013v-485.84c-1e-3 -12.538-10.168-22.7-22.705-22.7z" fill="#9db6c9"/>
  </g>
  <g id="g138" transform="translate(-223.4 -351.27)" opacity=".2">
   <path id="path136" d="m1350.6 1189.5c0 12.537-10.167 22.699-22.704 22.699h-639.32c-12.537 0-22.704-10.162-22.704-22.699v-343.02c0-12.537 10.167-22.7 22.704-22.7h639.32c12.537 0 22.704 10.164 22.704 22.7z" fill="#9db6c9"/>
  </g>
  <path id="path140" d="m1127.2 950.33c0 12.536-10.167 22.7-22.704 22.7h-639.32c-12.537 0-22.704-10.164-22.704-22.7v-443.12c0-12.537 10.167-22.7 22.704-22.7h639.32c12.537 0 22.704 10.163 22.704 22.7z" fill="#efefef"/>
  <path id="path142" d="m1104.5 977.13h-639.32c-14.727 0-26.708-11.978-26.708-26.704v-443.12c0-14.727 11.981-26.704 26.708-26.704h639.32c14.727 0 26.708 11.978 26.708 26.704v443.12c0 14.727-11.982 26.705-26.708 26.705zm-639.32-488.52c-10.312 0-18.699 8.388-18.699 18.695v443.12c0 10.308 8.388 18.695 18.699 18.695h639.32c10.312 0 18.699-8.388 18.699-18.695v-443.12c0-10.308-8.388-18.695-18.699-18.695z" fill="#305d8a"/>
  <g id="g146" transform="translate(-223.4 -351.27)" opacity=".41">
   <path id="path144" d="m1326.9 839.83h-432.27l451.98 316.34v-293.64c0-17.022-8.591-22.7-19.709-22.7z" fill="#fff"/>
  </g>
  <path id="path148" d="m1310.2 953.03h-1046.7c-12.537 0-18.289 10.691-14.695 22.7 1.196 4.005 3.645 13.3 4.677 17.347 3.101 12.146 13.499 20.018 26.036 20.018h1014.7c12.537 0 22.935-7.872 26.036-20.018 1.032-4.047 3.48-13.342 4.677-17.347 3.593-12.008-2.159-22.7-14.696-22.7z" fill="#fff"/>
  <path id="path150" d="m1294.2 1017.1h-1014.7c-14.375 0-26.399-9.256-29.915-23.033-0.993-3.887-3.449-13.226-4.634-17.19-2.296-7.66-1.333-15.117 2.639-20.447 3.555-4.774 9.198-7.402 15.892-7.402h1046.7c6.694 0 12.337 2.628 15.892 7.402 3.974 5.33 4.936 12.787 2.64 20.451-1.185 3.961-3.641 13.3-4.634 17.187-3.514 13.776-15.538 23.032-29.914 23.032zm-1030.7-60.065c-4.161 0-7.434 1.443-9.471 4.177-2.444 3.28-2.948 8.156-1.388 13.369 1.232 4.129 3.684 13.44 4.72 17.507 2.64 10.327 11.337 17.003 22.157 17.003h1014.7c10.821 0 19.518-6.676 22.157-17.003 1.036-4.066 3.488-13.378 4.72-17.503 1.561-5.217 1.056-10.093-1.388-13.373-2.038-2.733-5.311-4.177-9.472-4.177h-1046.7z" fill="#305d8a"/>
  <g id="g154" transform="translate(-223.4 -351.27)" opacity=".2">
   <path id="path152" d="m1076.9 1304.3h-178.72v13.339c0 12.537 10.167 22.7 22.704 22.7h174.83c12.536 0 22.703-10.163 22.703-22.7v-13.339z" fill="#9db6c9"/>
  </g>
  <path id="path156" d="m853.5 953.03h-174.54c1.329 11.271 10.902 20.022 22.532 20.022h166.82c11.63 0 21.202-8.752 22.532-20.022h-37.342z" fill="#9db6c9"/>
  <path id="path158" d="m868.3 977.13h-166.82c-13.526 0-24.925-10.129-26.509-23.557-0.133-1.135 0.223-2.276 0.985-3.129 0.759-0.855 1.85-1.345 2.992-1.345h211.88c1.142 0 2.232 0.489 2.991 1.345 0.763 0.853 1.119 1.994 0.985 3.129-1.583 13.428-12.982 23.557-26.508 23.557zm-184.28-20.022c2.702 7.085 9.561 12.013 17.456 12.013h166.82c7.896 0 14.754-4.928 17.457-12.013h-201.73z" fill="#305d8a"/>
  <g id="g162" transform="translate(-223.4 -351.27)" opacity=".2">
   <path id="path160" d="m480.37 1348.4c4.802 7.478 13.057 12.014 22.559 12.014h1014.7c9.503 0 17.758-4.536 22.56-12.014h-1059.8z" fill="#9db6c9"/>
  </g>
  <g id="g166" transform="translate(-223.4 -351.27)" opacity=".33">
   <path id="path164" d="m1327.9 835.82h-639.32c-12.537 0-22.704 10.163-22.704 22.7v12.013c0-12.537 10.167-22.7 22.704-22.7h639.32c12.537 0 22.704 10.164 22.704 22.7v-12.013c0-12.537-10.167-22.7-22.704-22.7z" fill="#9db6c9"/>
  </g>
  <g id="g170" transform="translate(-223.4 -351.27)" opacity=".2">
   <rect id="rect168" x="617.84" y="1292.3" width="764.82" height="8.009" fill="#9db6c9"/>
  </g>
  <circle id="circle172" cx="786.9" cy="461.03" r="4.505" fill="#305d8a"/>
  <g id="g176" transform="translate(-223.4 -351.27)" opacity=".2">
   <path id="path174" d="m1366.6 791.98c0.665-0.078 1.314-0.203 2.002-0.203h-2.002z" fill="#9db6c9"/>
  </g>
 </g>
</svg>
