<?xml version="1.0" encoding="UTF-8" standalone="no"?>
<svg
   xmlns:dc="http://purl.org/dc/elements/1.1/"
   xmlns:cc="http://creativecommons.org/ns#"
   xmlns:rdf="http://www.w3.org/1999/02/22-rdf-syntax-ns#"
   xmlns:svg="http://www.w3.org/2000/svg"
   xmlns="http://www.w3.org/2000/svg"
   xmlns:sodipodi="http://sodipodi.sourceforge.net/DTD/sodipodi-0.dtd"
   xmlns:inkscape="http://www.inkscape.org/namespaces/inkscape"
   id="svg408"
   enable-background="new 0 0 2000 2000"
   version="1.1"
   viewBox="0 0 1547.3 1297.4"
   sodipodi:docname="laptop.svg"
   inkscape:version="1.0.1 (c497b03c, 2020-09-10)"
   inkscape:export-filename="/Users/Patrick/Documents/Projects/portfolio/resources/laptop.svg.png"
   inkscape:export-xdpi="96"
   inkscape:export-ydpi="96">
  <defs
     id="defs491">
    <rect
       x="463.97632"
       y="763.36645"
       width="642.6699"
       height="130.10147"
       id="rect2096" />
    <rect
       x="467.1113"
       y="813.52605"
       width="660.0887"
       height="116.76357"
       id="rect2089" />
    <inkscape:path-effect
       effect="fillet_chamfer"
       id="path-effect814"
       is_visible="true"
       lpeversion="1"
       satellites_param="F,0,0,1,0,19.056617,0,1 @ F,0,0,1,0,18.844208,0,1 @ F,0,0,1,0,0,0,1 @ F,0,0,1,0,0,0,1"
       unit="px"
       method="auto"
       mode="F"
       radius="0"
       chamfer_steps="1"
       flexible="false"
       use_knot_distance="true"
       apply_no_radius="true"
       apply_with_radius="true"
       only_selected="false"
       hide_knots="false" />
    <filter
       style="color-interpolation-filters:sRGB;"
       inkscape:label="Lightness-Contrast"
       id="filter2036">
      <feColorMatrix
         values="1.21672 0 0 0.126964 -0.108359 0 1.21672 0 0.126964 -0.108359 0 0 1.21672 0.126964 -0.108359 0 0 0 1 0"
         id="feColorMatrix2034" />
    </filter>
    <clipPath
       clipPathUnits="userSpaceOnUse"
       id="clipPath2177">
      <path
         id="path2179"
         d="M 688.57999,839.51187 H 1327.9 a 18.844208,18.874135 0 0 1 18.8442,18.87414 V 1300.7756 H 669.52339 V 858.59875 a 19.056617,19.086881 0 0 1 19.0566,-19.08688 z"
         style="display:inline;fill:#0000ff;fill-rule:evenodd;stroke-width:1.00079" />
    </clipPath>
    <clipPath
       clipPathUnits="userSpaceOnUse"
       id="clipPath2181">
      <path
         id="path2183"
         d="m 453.83273,724.61114 h 606.42667 a 17.874663,4.9697571 0 0 1 17.8746,4.96976 V 846.06671 H 435.7566 V 729.63692 a 18.076143,5.0257753 0 0 1 18.07613,-5.02578 z"
         style="display:inline;fill:#0000ff;fill-rule:evenodd;stroke-width:0.500158" />
    </clipPath>
    <clipPath
       clipPathUnits="userSpaceOnUse"
       id="clipPath2185">
      <path
         id="path2187"
         d="M 465.17999,488.24187 H 1104.5 a 18.844208,18.874135 0 0 1 18.8442,18.87414 V 949.5056 H 446.12339 V 507.32875 a 19.056617,19.086881 0 0 1 19.0566,-19.08688 z"
         style="display:inline;fill:#0000ff;fill-rule:evenodd;stroke-width:1.00079" />
    </clipPath>
    <clipPath
       clipPathUnits="userSpaceOnUse"
       id="clipPath2189">
      <path
         id="path2191"
         d="M 465.17999,488.24187 H 1104.5 a 18.844208,18.874135 0 0 1 18.8442,18.87414 V 949.5056 H 446.12339 V 507.32875 a 19.056617,19.086881 0 0 1 19.0566,-19.08688 z"
         style="display:inline;fill:#0000ff;fill-rule:evenodd;stroke-width:1.00079" />
    </clipPath>
    <clipPath
       clipPathUnits="userSpaceOnUse"
       id="clipPath2193">
      <path
         id="path2195"
         d="M 465.17999,488.24187 H 1104.5 a 18.844208,18.874135 0 0 1 18.8442,18.87414 V 949.5056 H 446.12339 V 507.32875 a 19.056617,19.086881 0 0 1 19.0566,-19.08688 z"
         style="display:inline;fill:#0000ff;fill-rule:evenodd;stroke-width:1.00079" />
    </clipPath>
    <clipPath
       clipPathUnits="userSpaceOnUse"
       id="clipPath2197">
      <path
         id="path2199"
         d="M 688.57999,836.34817 H 1327.9 a 18.844208,15.078542 0 0 1 18.8442,15.07854 V 1204.8516 H 669.52339 V 851.59667 a 19.056617,15.248505 0 0 1 19.0566,-15.2485 z"
         style="display:inline;fill:#0000ff;fill-rule:evenodd;stroke-width:0.894518" />
    </clipPath>
  </defs>
  <sodipodi:namedview
     pagecolor="#ffffff"
     bordercolor="#666666"
     borderopacity="1"
     objecttolerance="10"
     gridtolerance="10"
     guidetolerance="10"
     inkscape:pageopacity="0"
     inkscape:pageshadow="2"
     inkscape:window-width="2560"
     inkscape:window-height="1440"
     id="namedview489"
     showgrid="false"
     showguides="true"
     inkscape:guide-bbox="true"
     inkscape:zoom="0.63796359"
     inkscape:cx="890.82658"
     inkscape:cy="607.56129"
     inkscape:window-x="0"
     inkscape:window-y="0"
     inkscape:window-maximized="0"
     inkscape:current-layer="layer3">
    <sodipodi:guide
       position="446.12338,713.28317"
       orientation="1,0"
       id="guide804" />
    <sodipodi:guide
       position="1123.3442,596.34897"
       orientation="1,0"
       id="guide806" />
    <sodipodi:guide
       position="190.05786,347.89442"
       orientation="0,-1"
       id="guide808" />
    <sodipodi:guide
       position="553.08215,809.15813"
       orientation="0,-1"
       id="guide810" />
  </sodipodi:namedview>
  <metadata
     id="metadata414">
    <rdf:RDF>
      <cc:Work
         rdf:about="">
        <dc:format>image/svg+xml</dc:format>
        <dc:type
           rdf:resource="http://purl.org/dc/dcmitype/StillImage" />
        <dc:title></dc:title>
        <cc:license
           rdf:resource="" />
      </cc:Work>
    </rdf:RDF>
  </metadata>
  <g
     inkscape:groupmode="layer"
     id="layer4"
     inkscape:label="Laptop"
     style="display:inline">
    <g
       id="laptop">
      <path
         id="path128"
         d="m 1175.3,958.43 c 0,12.537 -10.167,22.7 -22.704,22.7 h -735.43 c -12.537,0 -22.704,-10.163 -22.704,-22.7 V 463.25 c 0,-12.537 10.167,-22.7 22.704,-22.7 h 735.43 c 12.537,0 22.704,10.163 22.704,22.7 z"
         fill="#ffffff" />
      <path
         id="path130"
         d="M 1152.6,985.13 H 417.17 c -14.727,0 -26.708,-11.979 -26.708,-26.705 v -495.18 c 0,-14.727 11.981,-26.705 26.708,-26.705 h 735.43 c 14.727,0 26.709,11.978 26.709,26.705 v 495.18 c 10e-4,14.726 -11.982,26.704 -26.708,26.704 z M 417.17,444.55 c -10.312,0 -18.7,8.388 -18.7,18.696 v 495.18 c 0,10.308 8.388,18.696 18.7,18.696 h 735.43 c 10.312,0 18.7,-8.389 18.7,-18.696 v -495.18 c 0,-10.308 -8.389,-18.696 -18.7,-18.696 z"
         fill="#305d8a" />
      <g
         id="g134"
         transform="translate(-223.4,-351.27)"
         opacity="0.2">
        <path
           id="path132"
           d="m 1372,791.78 h -7.328 c 9.952,0 18.02,8.067 18.02,18.019 v 490.52 h 12.013 v -485.84 c -10e-4,-12.538 -10.168,-22.7 -22.705,-22.7 z"
           fill="#9db6c9" />
      </g>
      <path
         id="path142"
         d="M 1104.5,977.13 H 465.18 c -14.727,0 -26.708,-11.978 -26.708,-26.704 v -443.12 c 0,-14.727 11.981,-26.704 26.708,-26.704 h 639.32 c 14.727,0 26.708,11.978 26.708,26.704 v 443.12 c 0,14.727 -11.982,26.705 -26.708,26.705 z M 465.18,488.61 c -10.312,0 -18.699,8.388 -18.699,18.695 v 443.12 c 0,10.308 8.388,18.695 18.699,18.695 h 639.32 c 10.312,0 18.699,-8.388 18.699,-18.695 v -443.12 c 0,-10.308 -8.388,-18.695 -18.699,-18.695 z"
         fill="#305d8a" />
      <path
         id="path148"
         d="M 1310.2,953.03 H 263.5 c -12.537,0 -18.289,10.691 -14.695,22.7 1.196,4.005 3.645,13.3 4.677,17.347 3.101,12.146 13.499,20.018 26.036,20.018 h 1014.7 c 12.537,0 22.935,-7.872 26.036,-20.018 1.032,-4.047 3.48,-13.342 4.677,-17.347 3.593,-12.008 -2.159,-22.7 -14.696,-22.7 z"
         fill="#ffffff" />
      <path
         id="path150"
         d="M 1294.2,1017.1 H 279.5 c -14.375,0 -26.399,-9.256 -29.915,-23.033 -0.993,-3.887 -3.449,-13.226 -4.634,-17.19 -2.296,-7.66 -1.333,-15.117 2.639,-20.447 3.555,-4.774 9.198,-7.402 15.892,-7.402 h 1046.7 c 6.694,0 12.337,2.628 15.892,7.402 3.974,5.33 4.936,12.787 2.64,20.451 -1.185,3.961 -3.641,13.3 -4.634,17.187 -3.514,13.776 -15.538,23.032 -29.914,23.032 z M 263.5,957.035 c -4.161,0 -7.434,1.443 -9.471,4.177 -2.444,3.28 -2.948,8.156 -1.388,13.369 1.232,4.129 3.684,13.44 4.72,17.507 2.64,10.327 11.337,17.003 22.157,17.003 h 1014.7 c 10.821,0 19.518,-6.676 22.157,-17.003 1.036,-4.066 3.488,-13.378 4.72,-17.503 1.561,-5.217 1.056,-10.093 -1.388,-13.373 -2.038,-2.733 -5.311,-4.177 -9.472,-4.177 h -1046.7 z"
         fill="#305d8a" />
      <g
         id="g154"
         transform="translate(-223.4,-351.27)"
         opacity="0.2">
        <path
           id="path152"
           d="M 1076.9,1304.3 H 898.18 v 13.339 c 0,12.537 10.167,22.7 22.704,22.7 h 174.83 c 12.536,0 22.703,-10.163 22.703,-22.7 V 1304.3 Z"
           fill="#9db6c9" />
      </g>
      <path
         id="path156"
         d="M 853.5,953.03 H 678.96 c 1.329,11.271 10.902,20.022 22.532,20.022 h 166.82 c 11.63,0 21.202,-8.752 22.532,-20.022 h -37.342 z"
         fill="#9db6c9" />
      <path
         id="path158"
         d="M 868.3,977.13 H 701.48 c -13.526,0 -24.925,-10.129 -26.509,-23.557 -0.133,-1.135 0.223,-2.276 0.985,-3.129 0.759,-0.855 1.85,-1.345 2.992,-1.345 h 211.88 c 1.142,0 2.232,0.489 2.991,1.345 0.763,0.853 1.119,1.994 0.985,3.129 -1.583,13.428 -12.982,23.557 -26.508,23.557 z M 684.02,957.108 c 2.702,7.085 9.561,12.013 17.456,12.013 h 166.82 c 7.896,0 14.754,-4.928 17.457,-12.013 h -201.73 z"
         fill="#305d8a" />
      <g
         id="g162"
         transform="translate(-223.4,-351.27)"
         opacity="0.2">
        <path
           id="path160"
           d="m 480.37,1348.4 c 4.802,7.478 13.057,12.014 22.559,12.014 h 1014.7 c 9.503,0 17.758,-4.536 22.56,-12.014 h -1059.8 z"
           fill="#9db6c9" />
      </g>
      <g
         id="g166"
         transform="translate(-223.4,-351.27)"
         opacity="0.33">
        <path
           id="path164"
           d="M 1327.9,835.82 H 688.58 c -12.537,0 -22.704,10.163 -22.704,22.7 v 12.013 c 0,-12.537 10.167,-22.7 22.704,-22.7 h 639.32 c 12.537,0 22.704,10.164 22.704,22.7 V 858.52 c 0,-12.537 -10.167,-22.7 -22.704,-22.7 z"
           fill="#9db6c9" />
      </g>
      <g
         id="g170"
         transform="translate(-223.4,-351.27)"
         opacity="0.2">
        <rect
           id="rect168"
           x="617.84003"
           y="1292.3"
           width="764.82001"
           height="8.0089998"
           fill="#9db6c9" />
      </g>
      <circle
         id="circle172"
         cx="786.90002"
         cy="461.03"
         r="4.5050001"
         fill="#305d8a" />
      <g
         id="g176"
         transform="translate(-223.4,-351.27)"
         opacity="0.2">
        <path
           id="path174"
           d="m 1366.6,791.98 c 0.665,-0.078 1.314,-0.203 2.002,-0.203 h -2.002 z"
           fill="#9db6c9" />
      </g>
    </g>
  </g>
  <g
     inkscape:groupmode="layer"
     id="layer3"
     inkscape:label="Screen"
     style="display:inline;opacity:0.8">
    <g
       id="g138"
       transform="matrix(1,0,0,1.2517215,-223.4,-558.63311)"
       opacity="0.2"
       clip-path="url(#clipPath2197)">
      <path
         id="path136"
         d="m 1350.6,1189.5 c 0,12.537 -10.167,22.699 -22.704,22.699 h -639.32 c -12.537,0 -22.704,-10.162 -22.704,-22.699 V 846.48 c 0,-12.537 10.167,-22.7 22.704,-22.7 h 639.32 c 12.537,0 22.704,10.164 22.704,22.7 z"
         fill="#9db6c9" />
    </g>
    <path
       id="path2084"
       d="M 465.17999,488.24188 H 1104.5 a 18.844208,18.874135 0 0 1 18.8442,18.87413 V 949.50554 H 446.12339 V 507.32875 a 19.056617,19.086882 0 0 1 19.0566,-19.08687 z"
       style="display:inline;fill:#0000ff;fill-rule:evenodd;stroke-width:1.00079"
       clip-path="url(#clipPath2193)" />
    <path
       id="path140"
       d="m 1127.2,950.33 c 0,12.536 -10.167,22.7 -22.704,22.7 h -639.32 c -12.537,0 -22.704,-10.164 -22.704,-22.7 V 507.21 c 0,-12.537 10.167,-22.7 22.704,-22.7 h 639.32 c 12.537,0 22.704,10.163 22.704,22.7 z"
       fill="#efefef"
       clip-path="url(#clipPath2189)" />
    <path
       id="path828"
       d="m 465.18,488.24188 h 639.32 a 18.844208,18.844208 0 0 1 18.8442,18.84421 V 948.7742 H 446.12338 V 507.2985 A 19.056617,19.056617 0 0 1 465.18,488.24188 Z"
       style="display:inline;fill:none;fill-rule:evenodd"
       clip-path="url(#clipPath2185)" />
    <text
       xml:space="preserve"
       id="text2094"
       style="font-style:normal;font-variant:normal;font-weight:bold;font-stretch:normal;font-size:40px;line-height:1.25;font-family:sans-serif;-inkscape-font-specification:'sans-serif, Bold';font-variant-ligatures:normal;font-variant-caps:normal;font-variant-numeric:normal;font-variant-east-asian:normal;white-space:pre;shape-inside:url(#rect2096);display:inline;fill:#000000;fill-opacity:1;stroke:none;"
       transform="matrix(1.0542413,0,0,3.7977983,-22.865482,-2287.537)"
       clip-path="url(#clipPath2181)"><tspan
         x="463.97656"
         y="805.53465"><tspan
           style="font-style:normal;font-variant:normal;font-weight:bold;font-stretch:normal;font-size:47.9772px;font-family:Courier;-inkscape-font-specification:'Courier, Bold';font-variant-ligatures:normal;font-variant-caps:normal;font-variant-numeric:normal;font-variant-east-asian:normal">&lt;PATRICK BILLINGSLEY&gt;</tspan></tspan></text>
    <g
       id="g146"
       transform="translate(-223.4,-351.27)"
       opacity="0.41"
       clip-path="url(#clipPath2177)"
       style="opacity:0.170418">
      <path
         id="path144"
         d="M 1326.9,839.83 H 894.63 l 451.98,316.34 V 862.53 c 0,-17.022 -8.591,-22.7 -19.709,-22.7 z"
         fill="#ffffff" />
    </g>
  </g>
</svg>
