<?xml version="1.0" encoding="UTF-8"?>
<svg id="svg408" enable-background="new 0 0 2000 2000" version="1.1" viewBox="0 0 1547.3 1297.4" xmlns="http://www.w3.org/2000/svg" xmlns:cc="http://creativecommons.org/ns#" xmlns:dc="http://purl.org/dc/elements/1.1/" xmlns:rdf="http://www.w3.org/1999/02/22-rdf-syntax-ns#">
 <metadata id="metadata414">
  <rdf:RDF>
   <cc:Work rdf:about="">
    <dc:format>image/svg+xml</dc:format>
    <dc:type rdf:resource="http://purl.org/dc/dcmitype/StillImage"/>
    <dc:title/>
    <cc:license rdf:resource=""/>
   </cc:Work>
  </rdf:RDF>
 </metadata>

 <g id="table" fill="#305d8a">
  <path id="path178" d="m1547.7 1017.1h-20.021c-2.213 0-4.005-1.792-4.005-4.005s1.792-4.004 4.005-4.004h20.021c2.214 0 4.005 1.791 4.005 4.004s-1.791 4.005-4.005 4.005zm-52.055 0h-32.034c-2.214 0-4.004-1.792-4.004-4.005s1.79-4.004 4.004-4.004h32.034c2.213 0 4.004 1.791 4.004 4.004s-1.792 4.005-4.004 4.005z"/>
  <path id="path180" d="m1463.2 1017.1h-1450.3c-2.4511 0-4.4348-1.792-4.4348-4.005s1.9837-4.004 4.4348-4.004h1450.3c2.4521 0 4.4347 1.791 4.4347 4.004s-1.9826 4.005-4.4347 4.005z" stroke-width="1.0524"/>
 </g>
</svg>
